<svg width="1194" height="124" viewBox="0 0 1194 124" version="1.1" xmlns="http://www.w3.org/2000/svg" xmlns:xlink="http://www.w3.org/1999/xlink">
<title>Group</title>
<desc>Created using Figma</desc>
<g id="Canvas" transform="translate(-10419 199)">
<g id="Group">
<g id="Generic-Cityscape-Silhouette-3">
<g id="Vector">
<use xlink:href="#path0_fill" transform="matrix(-1 0 0 1 11613 -199)" fill="#3C78B0"/>
</g>
</g>
<g id="Generic-Cityscape-Silhouette-3">
<g id="Vector">
<use xlink:href="#path1_fill" transform="translate(10419 -171)" fill="#00294F"/>
</g>
</g>
</g>
</g>
<defs>
<path id="path0_fill" d="M 285.942 0.0233683C 285.444 0.0592119 284.95 0.0947835 284.455 0.12799C 283.859 6.99227 284.591 13.8768 283.944 20.7378C 281.338 21.0749 278.75 21.4559 276.124 21.7526C 275.9 22.3596 275.708 22.9732 275.509 23.5867C 274.286 23.8362 273.076 24.096 271.872 24.3622C 271.27 27.9359 271.878 31.5164 271.791 35.0934C 269.861 35.1104 267.937 35.1001 266.019 35.1238C 265.51 35.6059 264.964 36.0744 264.38 36.5263C 264.169 35.8352 263.995 35.1405 263.859 34.4426C 260.19 34.6684 256.541 34.1258 252.891 34.4292C 251.525 34.4766 250.222 34.1662 248.869 34.1899C 246.976 34.4561 245.2 34.9147 243.345 35.2451C 243.205 71.1263 244.27 63.2303 241.228 66.4543C 240.881 67.2298 240.93 68.0389 240.824 68.8311C 239.254 68.8786 237.684 68.9222 236.113 68.9729C 236.132 70.4732 236.076 71.9767 235.995 73.477C 235.088 73.4998 234.187 73.5161 233.286 73.5324L 233.177 73.5344C 233.028 70.3417 233.326 67.1454 233.097 63.9527C 233.053 62.4659 231.718 61.1038 231.644 59.6237C 231.501 57.702 231.793 55.7767 231.57 53.8585C 231.433 52.9348 230.428 52.1257 230.341 51.1985C 230.124 49.3072 230.627 47.3922 230.024 45.5176C 225.4 44.2973 219.826 44.4086 215.109 45.4301C 214.479 60.0909 212.824 42.5696 213.663 73.3083L 213.308 73.3473C 212.503 73.4355 211.703 73.5232 210.907 73.6085C 210.746 75.409 211.112 77.2092 210.944 79.0097C 208.536 79.0062 206.127 79.0129 203.725 79.0366C 203.893 85.5705 203.725 92.1042 203.825 98.6381C 199.834 98.6651 195.842 98.6214 191.851 98.5304C 191.69 97.1314 191.814 95.7289 191.678 94.3296C 191.746 93.5474 190.318 93.1362 189.629 92.5461C 189.22 91.4168 189.45 90.2536 189.394 89.1141C 185.98 89.0939 182.566 89.0298 179.165 89.1545L 179.166 89.0627C 179.187 87.652 179.441 70.9844 178.979 70.5475C 176.713 69.8397 174.329 69.2326 172.312 68.3157C 170.431 69.0809 168.451 69.7721 166.403 70.3958C 166.67 82.4454 166.391 94.4948 166.434 106.544C 163.38 106.868 160.538 106.163 157.683 105.715C 157.335 105.412 156.994 105.109 156.654 104.806L 156.652 104.805C 155.553 104.727 154.455 104.65 153.369 104.569C 153.111 100.546 153.137 66.0221 153.499 57.4835C 151.246 57.5376 149.514 56.8125 147.782 56.1518C 144.573 55.8552 141.252 56.1249 138.006 56.0238C 137.832 56.4485 137.658 56.8699 137.478 57.2948C 136.245 57.2981 135.011 57.2981 133.777 57.2981L 133.773 57.2981C 133.81 55.9495 134.139 54.4898 132.469 53.3603C 130.495 53.3503 128.521 53.3167 126.56 53.2458C 126.287 52.2073 125.461 50.3834 122.836 50.8318C 118.944 51.5701 114.828 51.1317 110.813 51.1958C 106.546 51.3189 104.649 49.0572 102.657 52.7635C 102.39 53.5726 100.733 53.8154 99.6217 54.2131C 99.3856 54.5874 99.1499 54.9652 98.9079 55.3427C 96.9593 55.5213 95.0474 55.7878 93.1355 56.0607C 93.0055 56.6573 92.8751 57.2541 92.7446 57.8542C 91.5778 57.9148 90.4106 57.9722 89.2438 58.0329C 89.0017 67.24 89.1877 76.451 89.1629 85.6616C 75.1091 85.6732 75.7917 86.3175 74.0986 84.7008C 73.54 82.7453 74.5272 80.6954 73.2483 78.7973C 72.7021 77.7893 71.6286 76.9128 70.7843 75.9789C 70.2073 74.9946 70.1825 73.9394 69.5431 72.9616C 68.4631 71.3769 68.9473 69.6643 68.9349 68.019C 68.1714 67.6852 67.408 67.3548 66.651 67.021C 66.8499 65.0251 64.5471 63.164 65.7263 61.1749L 64.1497 61.1749C 65.3666 63.164 63.0018 65.0149 63.2127 67.0142C 62.4432 67.3446 61.6674 67.6749 60.8975 68.0088C 60.7849 75.8024 59.6121 71.084 59.2341 76.7037C 58.2593 76.8724 57.2414 76.9936 56.3291 77.2566C 53.8026 79.5459 55.075 82.3611 54.6717 84.8964C 48.1672 85.1187 41.6309 84.9974 35.1074 85.0378C 32.3393 84.9198 29.9244 85.8066 27.2307 85.992C 26.9639 84.6973 27.1439 83.3691 26.6101 82.0946C 25.0148 80.9583 22.6996 80.1627 21.4023 78.8916C 19.6581 77.3205 16.8588 75.9247 13.4076 75.6854C 11.4471 75.461 5.31903 78.5459 6.22586 85.2335C 4.76095 85.6382 2.94233 85.9855 2.42095 86.9361C 0.608781 88.9387 1.51462 91.2042 1.29138 93.3418C 1.26658 94.488 0.266987 95.54 0.0685562 96.6728C -0.105567 97.7145 0.112211 122.958 0.0685562 124L 1193.86 124C 1193.95 120.879 1194.13 79.5044 1193.86 76.9589C 1192.7 76.8815 1191.57 76.8072 1190.44 76.7331C 1190.22 76.3351 1190.01 75.9339 1189.82 75.5362C 1189.34 75.5531 1188.87 75.5698 1188.43 75.5868C 1187.76 76.0993 1187.54 77.1478 1186 76.9017C 1185.52 76.5395 1185.14 76.1492 1184.76 75.7637L 1184.71 75.7151C 1183.23 75.479 1181.77 75.2196 1180.35 74.9194C 1175.2 76.0554 1175.28 75.1029 1163.56 75.5464C 1162.75 75.1048 1161.97 74.6599 1161.19 74.2148C 1159.82 75.0644 1157.99 75.5769 1155.93 75.6679C 1155.73 76.0524 1155.55 76.4402 1155.38 76.8244C 1152.65 76.919 1149.9 76.8279 1147.2 77.0402C 1144.26 77.7931 1146.56 107.736 1145.71 115.111C 1138.51 116.035 1143.56 116.263 1134.1 116.001C 1133.93 113.566 1134.08 111.132 1134.06 108.695C 1133.6 108.691 1132.69 108.681 1132.23 108.674C 1132.23 110.957 1132.21 113.243 1132.34 115.525C 1131.68 115.468 1131.04 115.41 1130.4 115.357C 1130.15 110.883 1130.55 106.409 1130.33 101.938C 1123.77 101.766 1117.19 101.817 1110.62 101.837C 1108.67 35.5288 1114.21 37.8006 1108.01 36.5964C 1099.82 35.7654 1098.12 37.2681 1095.34 37.7494C 1093.55 38.2045 1091.16 38.3696 1090.24 39.4418C 1089.85 40.6826 1090.07 41.9501 1090.01 43.2044C 1088.9 43.2653 1087.8 43.3327 1086.72 43.4C 1086.69 41.4883 1086.99 39.5835 1086.91 37.6753C 1086.98 36.5694 1084.13 36.175 1084.4 35.0152C 1084.87 30.8287 1084.81 26.6292 1084.75 22.4358L 1084.75 22.16C 1084.83 20.4945 1080.63 19.8844 1080.94 18.1616C 1080.52 12.7604 1081.04 7.34929 1080.88 1.9449C 1080.19 2.22136 1079.5 2.50132 1078.84 2.77778C 1077.52 19.192 1081.44 16.9701 1074.67 20.734C 1073.02 21.5195 1073.69 22.8242 1073.53 23.8694C 1073.72 27.6824 1073.63 31.4922 1073.96 35.2984C 1073.86 36.1512 1072.41 36.7952 1072.5 37.6753C 1072.49 38.8417 1072.57 40.0117 1072.45 41.1781L 1071.29 41.1549C 1066.72 41.0628 1062.15 40.9706 1057.59 41.1477C 1057.33 43.8654 1057.39 64.6563 1057.55 68.0888C 1054.68 68.0282 1051.8 68.0147 1048.93 68.1192C 1048.72 69.5271 1049.24 113.005 1048.85 117.453C 1047.95 117.46 1047.08 117.47 1046.21 117.484C 1046.44 106.303 1046.02 83.6483 1046.02 83.6483C 1043.32 83.6618 1040.62 83.7089 1037.93 83.7089L 1037.91 83.8576C 1037.83 84.4998 1037.75 85.1442 1037.66 85.7858C 1035.18 85.7858 1032.71 85.7791 1030.24 85.7656C 1030.06 85.2935 1029.9 84.8215 1029.75 84.3462C 1027.1 84.2079 1024.45 84.198 1021.82 84.4238C 1021.8 85.2998 1021.8 86.1784 1021.8 87.0573L 1021.8 87.5658C 1019.99 87.5928 1018.18 87.623 1016.39 87.6467C 1016.3 86.9994 1016.25 86.3555 1016.2 85.7115C 1012.83 85.6573 1009.64 85.054 1006.43 84.5819C 1002.48 84.2888 998.471 84.4809 994.511 84.41C 993.825 86.5885 994.173 109.073 994.232 111.237C 991.668 111.213 989.105 111.216 986.547 111.186C 986.361 109.635 986.541 108.088 986.547 106.54C 984.518 106.22 982.414 106.061 980.415 105.7C 980.284 103.296 980.725 100.886 980.266 98.4821C 976.681 98.3293 973.09 98.378 969.51 98.4266L 968.889 98.435C 968.817 85.7166 969.987 88.4081 965.394 86.7766C 965.574 84.8616 965.642 82.9434 965.226 81.0351C 961.651 80.954 958.075 80.9608 954.507 80.9845C 952.967 82.8588 953.688 84.9425 953.57 86.9248C 951.472 87.0226 949.374 87.0832 947.282 87.1272C 946.7 90.4716 947.068 113.441 946.971 116.813C 944.464 116.847 941.962 116.847 939.467 116.809C 939.372 84.8228 939.749 55.2201 939.213 53.0286C 938.002 52.2362 935.594 52.1316 934.185 51.3664C 932.621 50.5437 930.808 49.8626 928.599 49.7041C 928.531 44.3749 928.904 35.0791 927.543 33.5077C 926.482 38.919 926.941 44.3873 926.842 49.8221C 920.578 50.2312 922.218 49.7575 920.716 52.5193C 916.719 52.5498 912.721 52.4789 908.73 52.5633C 908.823 54.5693 908.364 56.5687 908.401 58.578C 904.733 58.5882 901.065 58.5645 897.409 58.6488C 897.059 69.3043 897.566 90.4597 897.26 95.0771C 891.847 94.8917 886.447 95.111 881.047 95.2457C 881.035 92.8252 881.388 90.3978 880.731 87.9905C 879.421 87.6534 878.31 87.1544 877.478 86.5171C 873.108 86.3552 869.316 84.9258 864.928 84.9123C 865.058 83.0143 865.095 81.1127 864.779 79.2179C 862.042 79.0797 859.298 79.0056 856.561 78.9887C 856.35 78.5435 856.157 78.1019 855.977 77.6603C 853.296 77.7007 850.676 77.3568 848.442 76.5477C 847.337 77.4207 846.164 78.2671 844.954 79.0897C 841.341 78.8504 837.704 78.7494 834.079 78.8706C 833.63 87.1816 834.444 106.524 834.123 111.759C 830.597 111.718 827.462 112.848 823.912 112.635C 823.547 91.6084 824.723 95.2587 821.547 92.9832C 819.195 91.7391 819.592 89.7196 817.531 88.371C 817.035 89.4498 816.687 90.5454 816.371 91.6445C 812.28 91.7221 808.19 91.6176 804.106 91.7289C 804.125 91.4591 804.545 82.1057 803.615 80.3367C 797.285 80.4111 790.96 80.0233 784.635 80.2424C 783.815 79.5006 783.008 78.6917 781.568 78.2601C 779.701 77.5719 773.518 76.9373 767.367 78.0275C 764.804 78.3781 761.228 77.7443 759.67 79.2546C 759.659 79.291 760.053 113.026 759.564 118.073C 757.195 117.938 758.258 117.624 757.994 101.233C 755.257 101.213 752.526 101.216 749.795 101.206C 749.652 102.275 749.553 103.344 749.472 104.416L 748.977 104.42C 746.733 104.438 744.49 104.457 742.253 104.514C 741.936 107.659 742.234 110.815 742.11 113.964C 740 113.994 737.895 113.994 735.797 113.964C 735.425 106.739 735.692 99.5106 735.661 92.2855C 735.86 91.0989 733.346 90.4549 733.402 89.2917C 733.296 86.0518 730.627 83.122 728.436 80.1888C 728.051 79.6394 726.86 79.7237 725.997 79.6731C 711.363 79.5885 711.493 78.3748 708.344 85.7821C 707.63 85.7821 706.923 85.7853 706.221 85.7888C 706.066 83.4998 706.184 81.2105 705.892 78.928C 704.664 78.6483 703.441 78.3751 702.218 78.1089C 702.031 73.2439 702.336 68.379 702.087 63.5173C 699.567 63.5038 697.054 63.4666 694.546 63.3588C 694.528 61.626 694.54 59.8897 694.534 58.1568C 683.142 57.2312 689.279 56.4854 679.488 56.8149C 678.091 56.7947 677.843 57.6847 677.16 58.1568C 675.031 58.0388 674.926 56.8352 674.143 55.9923C 673.653 55.4189 673.02 54.8897 672.542 54.3166C 671.76 53.3051 672.958 51.9395 671.338 51.1271C 670.153 51.3968 669.085 51.7881 668.017 52.1588C 668.012 52.9308 668.024 53.703 668.03 54.475C 656.993 55.6525 659.44 59.4782 659.241 82.2927C 657.093 82.3735 655.374 81.6791 653.779 81.0014C 652.748 81.6185 651.792 82.259 650.868 82.9165C 647.187 82.7276 643.345 83.2401 639.819 82.5018C 637.479 82.0197 634.947 82.2725 632.52 82.2388L 632.519 81.4809C 632.514 77.4551 632.491 58.7657 632.47 58.6389C 627.647 56.5889 623.023 54.3031 619.702 51.4914C 613.979 51.2554 608.114 51.1408 602.484 51.8387C 601.801 50.7464 601.596 49.6001 601.577 48.4571C 601.751 47.3208 599.641 46.6771 599.119 45.6656C 598.53 44.4722 598.009 43.2718 597.468 42.0716C 595.52 41.9738 593.583 41.8256 591.671 41.6233C 595.508 38.209 593.567 41.5012 594.03 29.7321C 593.906 29.7289 593.651 29.7221 593.527 29.7186C 593.428 32.055 594.167 34.4588 592.863 36.7311C 591.919 38.5855 592.285 40.7599 589.871 42.3042C 588.034 43.4876 588.704 45.2541 586.985 46.4847C 586.252 47.1319 584.856 47.6377 584.905 48.4671C 584.645 50.4192 585.179 52.432 584.055 54.3301C 583.335 55.6113 583.527 56.9599 583.44 58.2781C 583.378 59.6401 582.168 60.9044 582.249 62.2732L 582.249 62.9388C 582.255 69.3789 582.261 75.8189 582.093 82.259C 580.821 82.259 579.561 82.2555 578.307 82.2487C 578.372 60.1079 578.741 61.1914 576.482 57.1046C 574.259 54.5836 568.636 50.3969 569.151 45.1024C 569.288 44.2124 568.704 43.3898 567.73 42.6919C 567.482 43.6595 567.159 44.6171 566.762 45.5678C 566.067 47.2365 566.675 49.0302 565.403 50.6316C 560.229 57.6492 560.25 56.2758 558.922 57.6171C 557.712 59.5353 557.861 61.6055 556.918 63.5542C 556.098 65.2601 556.421 67.0369 556.365 68.7799C 553.367 68.8845 550.363 68.8575 547.371 68.8271C 547.067 71.0961 547.322 73.3684 547.334 75.6407C 542.679 75.7151 538.024 75.7016 533.374 75.6375C 533.244 74.99 533.126 74.3428 533.008 73.6988C 530.997 73.6449 528.986 73.6179 526.981 73.574C 526.647 64.3736 527.267 55.1594 526.833 45.9587C 519.161 45.9183 511.495 45.6049 503.835 45.9757C 503.14 45.4632 502.463 44.9507 501.793 44.435C 501.234 45.1261 500.763 45.8375 500.093 46.4982C 498.593 47.0438 485.984 48.6794 485.488 48.7435C 484.035 55.6714 487.369 80.0039 483.874 80.3203C 483.527 74.7103 483.886 69.0936 483.663 63.4801C 478.561 63.4429 473.415 63.6216 468.381 63.0552C 463.95 63.271 459.983 64.6026 455.558 64.906C 455.266 71.6151 455.849 78.3344 455.39 85.0435C 453.224 84.8546 454.026 84.4617 453.944 70.8464C 447.946 70.5502 450.99 71.0994 445.242 69.0224L 445.241 69.0182C 445.192 68.5174 445.142 68.0163 445.105 67.5154C 440.624 67.3435 436.13 67.33 431.642 67.4009C 431.575 60.6204 434.226 61.5147 423.089 60.1421C 420.575 60.4321 418.105 60.9244 415.486 60.7624C 415.144 56.0392 416.125 51.309 415.424 46.589C 406.088 46.6329 396.753 46.5723 387.424 46.6531C 386.511 54.4378 387.97 62.2595 387.082 70.0542C 388.145 88.088 386.086 84.7366 388.255 88.4758L 388.255 88.4758C 386.554 88.4623 384.854 88.4488 383.159 88.4151C 383.085 87.3161 383.017 86.217 382.936 85.1179L 382.926 85.118C 380.968 85.1349 379.016 85.1518 377.064 85.1348C 376.617 79.0428 376.984 72.9405 376.903 66.8415C 375.27 66.8582 373.638 66.8685 372.011 66.8447C 371.663 59.4402 372.283 41.5791 371.893 37.8369C 370.994 37.8469 370.093 37.8504 369.206 37.8571C 369.001 38.454 368.814 39.0505 368.641 39.6474L 367.888 39.6521C 367.6 39.6539 367.312 39.6557 367.027 39.6576C 366.94 39.1297 366.859 38.5988 366.778 38.0705L 366.76 37.9549L 366.151 37.9488C 362.667 37.9133 359.183 37.8778 355.699 37.9415C 355.035 37.2606 354.383 36.5762 353.725 35.8985C 352.856 37.1358 351.373 38.2115 350.423 39.4183C 349.771 42.3583 350.628 45.3352 350.137 48.2785C 342.75 51.6469 346.141 42.7935 345.184 82.657C 340.981 81.2962 342.374 81.5237 342.124 75.0781C 335.352 74.896 328.562 74.8722 321.79 75.0274C 321.666 82.5559 321.647 90.0841 321.666 97.6126C 321.25 97.6193 320.406 97.6261 319.99 97.6296C 319.667 94.8348 319.971 92.0366 319.785 89.2415C 317.699 88.9988 316.241 88.2166 315.782 87.0838C 314.124 87.0873 312.473 87.0838 310.822 87.0703C 310.655 87.6704 310.506 88.274 310.375 88.8808C 308.718 88.9716 307.067 89.0492 305.416 89.1335C 305.531 101.938 304.068 98.5926 303.709 101.81L 302.6 101.815C 302.18 101.817 301.761 101.819 301.344 101.82C 301.152 99.0391 302.275 96.1363 300.482 93.4593C 297.214 87.9854 299.359 30.7436 298.787 25.0056C 297.539 24.6718 296.292 24.3549 295.044 24.0313C 294.889 23.2693 294.759 22.5108 294.566 21.7523C 291.898 21.4152 289.235 21.0342 286.485 20.9768C 286.174 19.1025 286.255 17.2145 286.981 15.3668C 286.957 14.0387 286.1 12.7405 286.28 11.3954C 286.336 7.59907 286.286 3.79954 286.268 0L 285.942 0.0233683Z"/>
<path id="path1_fill" d="M 285.942 0.0180916C 285.444 0.0458415 284.95 0.0733807 284.455 0.0990891C 283.859 5.41337 284.591 10.7433 283.944 16.0551C 281.338 16.316 278.75 16.611 276.124 16.8407C 275.9 17.3107 275.708 17.7857 275.509 18.2607C 274.286 18.4539 273.076 18.6549 271.872 18.8611C 271.27 21.6278 271.878 24.3998 271.791 27.1691C 269.861 27.1822 267.937 27.1743 266.019 27.1926C 265.51 27.5658 264.964 27.9286 264.38 28.2784C 264.169 27.7434 263.995 27.2056 263.859 26.6653C 260.19 26.8401 256.541 26.42 252.891 26.6548C 251.525 26.6916 250.222 26.4512 248.869 26.4696C 246.976 26.6757 245.2 27.0308 243.345 27.2865C 243.205 55.0655 244.27 48.9525 241.228 51.4485C 240.881 52.0489 240.93 52.6753 240.824 53.2886C 239.254 53.3253 237.684 53.3591 236.113 53.3983C 236.132 54.5599 236.076 55.7239 235.995 56.8854C 235.088 56.9031 234.187 56.9157 233.285 56.9284L 233.177 56.9299C 233.028 54.4581 233.326 51.9836 233.097 49.5118C 233.053 48.3607 231.718 47.3062 231.644 46.1603C 231.501 44.6725 231.793 43.182 231.57 41.6969C 231.433 40.9818 230.428 40.3554 230.341 39.6376C 230.124 38.1733 230.627 36.6908 230.024 35.2395C 225.4 34.2947 219.826 34.3808 215.109 35.1717C 214.479 46.522 212.824 32.9571 213.663 56.7548L 213.306 56.7851C 212.502 56.8534 211.702 56.9213 210.907 56.9872C 210.746 58.3811 211.112 59.7749 210.944 61.1688C 208.536 61.1661 206.127 61.1713 203.725 61.1896C 203.893 66.2482 203.725 71.3065 203.825 76.365C 199.834 76.3859 195.842 76.3521 191.851 76.2816C 191.69 75.1985 191.814 74.1127 191.678 73.0294C 191.746 72.4238 190.318 72.1055 189.629 71.6486C 189.22 70.7743 189.45 69.8738 189.394 68.9916C 185.98 68.9759 182.566 68.9263 179.165 69.0229L 179.166 68.9518C 179.187 67.8596 179.441 54.9556 178.979 54.6175C 176.713 54.0694 174.329 53.5994 172.312 52.8896C 170.431 53.482 168.451 54.0171 166.403 54.5C 166.67 63.8287 166.391 73.1572 166.434 82.486C 163.38 82.7365 160.538 82.191 157.683 81.8439C 157.335 81.609 156.993 81.3741 156.652 81.1392C 155.553 81.0791 154.455 81.019 153.369 80.9565C 153.111 77.8419 153.137 51.1139 153.499 44.5033C 151.246 44.5452 149.514 43.9839 147.782 43.4724C 144.573 43.2427 141.252 43.4515 138.006 43.3733C 137.832 43.7021 137.658 44.0283 137.478 44.3573C 136.247 44.3598 135.015 44.3598 133.784 44.3598L 133.773 44.3598C 133.81 43.3157 134.139 42.1857 132.469 41.3112C 130.495 41.3035 128.521 41.2774 126.56 41.2225C 126.287 40.4186 125.461 39.0065 122.836 39.3536C 118.944 39.9252 114.828 39.5858 110.813 39.6355C 106.546 39.7308 104.649 37.9797 102.657 40.8491C 102.39 41.4756 100.733 41.6635 99.6217 41.9714C 99.3856 42.2612 99.1499 42.5537 98.9079 42.8459C 96.9593 42.9842 95.0474 43.1906 93.1355 43.4019C 93.0055 43.8637 92.8751 44.3258 92.7446 44.7904C 91.5778 44.8373 90.4106 44.8817 89.2438 44.9287C 89.0017 52.0568 89.1877 59.1878 89.1629 66.3187C 75.1091 66.3276 75.7917 66.8264 74.0986 65.5748C 73.54 64.0609 74.5272 62.4738 73.2483 61.0044C 72.7021 60.224 71.6286 59.5454 70.7843 58.8224C 70.2073 58.0603 70.1825 57.2434 69.5431 56.4864C 68.4631 55.2595 68.9473 53.9336 68.9349 52.6599C 68.1714 52.4014 67.408 52.1457 66.651 51.8872C 66.8499 50.342 64.5471 48.9012 65.7263 47.3612L 64.1497 47.3612C 65.3666 48.9012 63.0018 50.3341 63.2127 51.882C 62.4432 52.1377 61.6674 52.3935 60.8975 52.652C 60.7849 58.6857 59.6121 55.0328 59.2341 59.3835C 58.2593 59.5141 57.2414 59.608 56.3291 59.8116C 53.8026 61.5839 55.075 63.7634 54.6717 65.7262C 48.1672 65.8983 41.6309 65.8045 35.1074 65.8357C 32.3393 65.7444 29.9244 66.4309 27.2307 66.5744C 26.9639 65.5721 27.1439 64.5438 26.6101 63.5571C 25.0148 62.6774 22.6996 62.0614 21.4023 61.0774C 19.6581 59.861 16.8588 58.7804 13.4076 58.5952C 11.4471 58.4214 5.31903 60.8098 6.22586 65.9872C 4.76095 66.3005 2.94233 66.5694 2.42095 67.3054C 0.608781 68.8558 1.51462 70.6097 1.29138 72.2646C 1.26658 73.152 0.266987 73.9664 0.0685562 74.8434C -0.105567 75.6499 0.112211 95.1935 0.0685562 96L 1193.86 96C 1193.95 93.5839 1194.13 61.5518 1193.86 59.5811C 1193.13 59.5436 1192.42 59.5071 1191.71 59.4709L 1190.44 59.4062C 1190.22 59.0981 1190.01 58.7875 1189.82 58.4796C 1189.34 58.4928 1188.87 58.5057 1188.43 58.5188C 1187.76 58.9156 1187.54 59.7273 1186 59.5368C 1185.52 59.2564 1185.14 58.9543 1184.76 58.6558L 1184.71 58.6181C 1183.23 58.4354 1181.77 58.2345 1180.35 58.0021C 1175.2 58.8816 1175.28 58.1442 1163.56 58.4875C 1162.75 58.1456 1161.97 57.8012 1161.19 57.4566C 1159.82 58.1143 1157.99 58.5111 1155.93 58.5816C 1155.73 58.8793 1155.55 59.1795 1155.38 59.477C 1152.65 59.5502 1149.9 59.4797 1147.2 59.6441C 1144.26 60.2269 1146.56 83.4082 1145.71 89.1178C 1138.51 89.8336 1143.56 90.0102 1134.1 89.8069C 1133.93 87.9223 1134.08 86.0377 1134.06 84.1507C 1133.6 84.1482 1132.69 84.1402 1132.23 84.135C 1132.23 85.9021 1132.21 87.6718 1132.34 89.4389L 1131.64 89.3915C 1131.22 89.3631 1130.81 89.3352 1130.4 89.3083C 1130.15 85.8446 1130.55 82.3808 1130.33 78.9198C 1123.77 78.7867 1117.19 78.826 1110.62 78.8416C 1108.67 27.5062 1114.21 29.2649 1108.01 28.3327C 1099.82 27.6893 1098.12 28.8527 1095.34 29.2253C 1093.55 29.5776 1091.16 29.7055 1090.24 30.5356C 1089.85 31.4962 1090.07 32.4775 1090.01 33.4486C 1088.9 33.4957 1087.8 33.5479 1086.72 33.6C 1086.69 32.12 1086.99 30.6453 1086.91 29.1679C 1086.98 28.3118 1084.13 28.0064 1084.4 27.1086C 1084.87 23.8674 1084.81 20.6162 1084.75 17.3697L 1084.75 17.1561C 1084.83 15.8667 1080.63 15.3944 1080.94 14.0606C 1080.52 9.87903 1081.04 5.68977 1080.88 1.50573C 1080.19 1.71976 1079.5 1.93651 1078.84 2.15054C 1077.52 14.8583 1081.44 13.1381 1074.67 16.0522C 1073.02 16.6602 1073.69 17.6703 1073.53 18.4795C 1073.72 21.4315 1073.63 24.381 1073.96 27.3278C 1073.86 27.9881 1072.41 28.4866 1072.5 29.1679C 1072.49 30.071 1072.57 30.9768 1072.45 31.8798L 1071.29 31.8618C 1066.72 31.7905 1062.15 31.7191 1057.59 31.8563C 1057.33 33.9603 1057.39 50.0565 1057.55 52.7139C 1054.68 52.667 1051.8 52.6565 1048.93 52.7375C 1048.72 53.8275 1049.24 87.4878 1048.85 90.9317C 1047.95 90.9369 1047.08 90.9448 1046.21 90.9552C 1046.44 82.2991 1046.02 64.76 1046.02 64.76C 1043.32 64.7704 1040.62 64.8069 1037.93 64.8069L 1037.91 64.9221C 1037.83 65.4193 1037.75 65.9181 1037.66 66.4148C 1035.18 66.4148 1032.71 66.4096 1030.24 66.3992C 1030.06 66.0337 1029.9 65.6682 1029.75 65.3003C 1027.1 65.1932 1024.45 65.1855 1021.82 65.3603C 1021.8 66.0385 1021.8 66.7188 1021.8 67.3992L 1021.8 67.7929C 1019.99 67.8138 1018.18 67.8371 1016.39 67.8555C 1016.3 67.3544 1016.25 66.8558 1016.2 66.3573C 1012.83 66.3153 1009.64 65.8483 1006.43 65.4828C 1002.48 65.2558 998.471 65.4046 994.511 65.3497C 993.825 67.0363 994.173 84.4436 994.232 86.1187C 991.668 86.1003 989.105 86.103 986.547 86.0795C 986.361 84.8787 986.541 83.6807 986.547 82.4826C 984.518 82.2346 982.414 82.1119 980.415 81.8326C 980.284 79.9714 980.725 78.1052 980.266 76.2442C 976.681 76.1259 973.09 76.1636 969.51 76.2012L 968.889 76.2077C 968.817 66.3612 969.987 68.445 965.394 67.1819C 965.574 65.6993 965.642 64.2142 965.226 62.7369C 961.651 62.6741 958.075 62.6793 954.507 62.6977C 952.967 64.1487 953.688 65.7619 953.57 67.2966C 951.472 67.3724 949.374 67.4193 947.282 67.4533C 946.7 70.0425 947.068 87.8251 946.971 90.4356C 944.464 90.4619 941.962 90.4619 939.467 90.4331C 939.372 65.6693 939.749 42.751 939.213 41.0544C 938.002 40.4409 935.594 40.36 934.185 39.7675C 932.621 39.1306 930.808 38.6033 928.599 38.4806C 928.531 34.3548 928.904 27.158 927.543 25.9414C 926.482 30.1309 926.941 34.3644 926.842 38.572C 920.578 38.8886 922.218 38.5219 920.716 40.6601C 916.719 40.6837 912.721 40.6289 908.73 40.6941C 908.823 42.2472 908.364 43.7951 908.401 45.3507C 904.733 45.3586 901.065 45.3403 897.409 45.4056C 897.059 53.6549 897.566 70.0334 897.26 73.6081C 891.847 73.4645 886.447 73.6343 881.047 73.7386C 881.035 71.8647 881.388 69.9854 880.731 68.1217C 879.421 67.8607 878.31 67.4744 877.478 66.981C 873.108 66.8556 869.316 65.749 864.928 65.7385C 865.058 64.2691 865.095 62.797 864.779 61.33C 862.042 61.223 859.298 61.1656 856.561 61.1525C 856.35 60.8079 856.157 60.466 855.977 60.1241C 853.296 60.1554 850.676 59.8892 848.442 59.2627C 847.337 59.9386 846.164 60.5939 844.954 61.2307C 841.341 61.0455 837.704 60.9673 834.079 61.0611C 833.63 67.4954 834.444 82.4705 834.123 86.5229C 830.597 86.4917 827.462 87.3659 823.912 87.2016C 823.547 70.9226 824.723 73.7486 821.547 71.987C 819.195 71.0238 819.592 69.4603 817.531 68.4162C 817.035 69.2515 816.687 70.0997 816.371 70.9506C 812.28 71.0107 808.19 70.9297 804.106 71.0159C 804.125 70.8071 804.545 63.5657 803.615 62.1962C 797.285 62.2537 790.96 61.9536 784.635 62.1232C 783.815 61.5489 783.008 60.9226 781.568 60.5884C 779.701 60.0556 773.518 59.5644 767.367 60.4084C 764.804 60.6798 761.228 60.1892 759.67 61.3584C 759.659 61.3866 760.053 87.5042 759.564 91.4115C 757.195 91.307 758.258 91.0639 757.994 78.3739C 755.257 78.3583 752.526 78.361 749.795 78.353C 749.652 79.1806 749.553 80.0079 749.472 80.838L 748.974 80.8412C 746.732 80.8556 744.49 80.87 742.253 80.9137C 741.936 83.349 742.234 85.7922 742.11 88.23C 740 88.2536 737.895 88.2536 735.797 88.23C 735.425 82.6366 735.692 77.0405 735.661 71.4469C 735.86 70.5282 733.346 70.0296 733.402 69.129C 733.296 66.6207 730.627 64.3525 728.436 62.0816C 728.051 61.6563 726.86 61.7216 725.997 61.6824C 711.363 61.6169 711.493 60.6773 708.344 66.4119C 707.63 66.4119 706.923 66.4144 706.221 66.4171C 706.066 64.645 706.184 62.8727 705.892 61.1056C 704.664 60.889 703.441 60.6775 702.218 60.4714C 702.031 56.705 702.336 52.9386 702.087 49.1747C 699.567 49.1642 697.054 49.1355 694.546 49.052C 694.528 47.7105 694.54 46.3662 694.534 45.0246C 683.142 44.3081 689.279 43.7306 679.488 43.9858C 678.091 43.9701 677.843 44.6591 677.16 45.0246C 675.031 44.9333 674.926 44.0014 674.143 43.3489C 673.653 42.905 673.02 42.4953 672.542 42.0516C 671.76 41.2684 672.958 40.2112 671.338 39.5823C 670.153 39.7911 669.085 40.094 668.017 40.381C 668.012 40.9787 668.024 41.5766 668.03 42.1742C 656.993 43.0858 659.44 46.0476 659.241 63.7105C 657.093 63.773 655.374 63.2355 653.779 62.7108C 652.748 63.1885 651.792 63.6844 650.868 64.1934C 647.187 64.0471 643.345 64.4439 639.819 63.8723C 637.479 63.4991 634.947 63.6948 632.52 63.6687L 632.519 63.082C 632.514 59.9652 632.491 45.496 632.47 45.3978C 627.647 43.8107 623.023 42.0411 619.702 39.8643C 613.979 39.6816 608.114 39.5929 602.484 40.1332C 601.801 39.2875 601.596 38.4001 601.577 37.5152C 601.751 36.6355 599.641 36.1371 599.119 35.354C 598.53 34.4301 598.009 33.5007 597.468 32.5716C 595.52 32.4959 593.583 32.3811 591.671 32.2245C 595.508 29.5812 593.567 32.13 594.03 23.0184C 593.906 23.0159 593.651 23.0107 593.527 23.008C 593.428 24.8168 594.167 26.6778 592.863 28.437C 591.919 29.8726 592.285 31.5561 589.871 32.7516C 588.034 33.6678 588.704 35.0355 586.985 35.9882C 586.252 36.4892 584.856 36.8808 584.905 37.5229C 584.645 39.0343 585.179 40.5926 584.055 42.062C 583.335 43.0539 583.527 44.098 583.44 45.1185C 583.378 46.173 582.168 47.1518 582.249 48.2115L 582.249 48.7268C 582.255 53.7127 582.261 58.6985 582.093 63.6844C 580.821 63.6844 579.561 63.6817 578.307 63.6764C 578.372 46.5352 578.741 47.374 576.482 44.21C 574.259 42.2583 568.636 39.0169 569.151 34.918C 569.288 34.229 568.704 33.5921 567.73 33.0518C 567.482 33.8009 567.159 34.5423 566.762 35.2783C 566.067 36.5702 566.675 37.9589 565.403 39.1986C 560.229 44.6316 560.25 43.5683 558.922 44.6068C 557.712 46.0919 557.861 47.6946 556.918 49.2033C 556.098 50.5239 556.421 51.8995 556.365 53.249C 553.367 53.3299 550.363 53.3091 547.371 53.2855C 547.067 55.0422 547.322 56.8014 547.334 58.5606C 542.679 58.6181 538.024 58.6077 533.374 58.558C 533.253 58.0937 533.144 57.6295 533.034 57.1673L 533.008 57.0571C 530.997 57.0154 528.986 56.9945 526.981 56.9605C 526.647 49.8376 527.267 42.7041 526.833 35.581C 519.161 35.5497 511.495 35.3071 503.835 35.5941C 503.14 35.1973 502.463 34.8006 501.793 34.4013C 501.234 34.9364 500.763 35.4871 500.093 35.9986C 498.593 36.421 485.984 37.6873 485.488 37.7369C 484.035 43.1004 487.369 61.9385 483.874 62.1834C 483.527 57.8402 483.886 53.4918 483.663 49.1459C 478.561 49.1171 473.415 49.2554 468.381 48.8169C 463.95 48.984 459.983 50.0149 455.558 50.2498C 455.266 55.444 455.849 60.646 455.39 65.8401C 453.224 65.6939 454.026 65.3897 453.944 54.8488C 447.946 54.6195 450.99 55.0447 445.242 53.4367L 445.241 53.4335C 445.192 53.0457 445.142 52.6577 445.105 52.27C 440.624 52.1369 436.13 52.1265 431.642 52.1813C 431.575 46.9319 434.226 47.6243 423.089 46.5617C 420.575 46.7861 418.105 47.1672 415.486 47.0419C 415.144 43.3852 416.125 39.7231 415.424 36.0689C 406.088 36.1029 396.753 36.056 387.424 36.1185C 386.511 42.1454 387.97 48.2009 387.082 54.2355C 388.145 68.1972 386.086 65.6025 388.255 68.4974L 388.254 68.4974C 386.553 68.4869 384.853 68.4765 383.159 68.4504C 383.085 67.5995 383.017 66.7486 382.936 65.8977L 382.927 65.8978C 380.969 65.9109 379.016 65.924 377.064 65.9108C 376.617 61.1944 376.984 56.4701 376.903 51.7483C 375.27 51.7612 373.638 51.7691 372.011 51.7508C 371.663 46.0182 372.283 32.1903 371.893 29.2931C 370.994 29.3008 370.093 29.3035 369.206 29.3088C 369.001 29.7708 368.814 30.2327 368.641 30.6947L 367.027 30.7027C 366.94 30.294 366.859 29.8829 366.778 29.4739L 366.76 29.3845L 366.152 29.3797C 362.667 29.3522 359.183 29.3248 355.699 29.374C 355.035 28.8469 354.383 28.317 353.725 27.7924C 352.856 28.7503 351.373 29.5831 350.423 30.5174C 349.771 32.7935 350.628 35.0982 350.137 37.3769C 342.75 39.9847 346.141 33.1304 345.184 63.9925C 340.981 62.939 342.374 63.1151 342.124 58.125C 335.352 57.984 328.562 57.9656 321.79 58.0858C 321.666 63.9143 321.647 69.7426 321.666 75.5711C 321.286 75.5758 320.547 75.5806 320.106 75.5834L 319.99 75.5842C 319.667 73.4205 319.971 71.2541 319.785 69.0902C 317.699 68.9023 316.241 68.2967 315.782 67.4197C 314.124 67.4224 312.473 67.4197 310.822 67.4093C 310.655 67.8738 310.506 68.3411 310.375 68.8109C 308.718 68.8812 307.067 68.9413 305.416 69.0066C 305.531 78.9196 304.068 76.3298 303.709 78.8207L 303.351 78.822C 302.678 78.8243 302.009 78.8265 301.344 78.8287C 301.152 76.6754 302.275 74.4281 300.482 72.3556C 297.214 68.1177 299.359 23.8015 298.787 19.3592C 297.539 19.1007 296.292 18.8554 295.044 18.6049C 294.889 18.0149 294.759 17.4277 294.566 16.8405C 291.898 16.5795 289.235 16.2845 286.485 16.2401C 286.174 14.789 286.255 13.3273 286.981 11.8969C 286.957 10.8687 286.1 9.8636 286.28 8.82223C 286.336 5.88315 286.286 2.94158 286.268 0L 285.942 0.0180916Z"/>
</defs>
</svg>
