<svg width="69" height="70" viewBox="0 0 69 70" version="1.1" xmlns="http://www.w3.org/2000/svg" xmlns:xlink="http://www.w3.org/1999/xlink">
<title>Codepen</title>
<desc>Created using Figma</desc>
<g id="Canvas" transform="translate(-8149 -2608)">
<g id="Codepen">
<g id="Group">
<g id="Vector">
<use xlink:href="#path0_fill" transform="translate(8149 2608)" fill="#F1E4C1"/>
</g>
</g>
</g>
</g>
<defs>
<path id="path0_fill" d="M 68.5049 23.9435C 68.4987 23.8993 68.488 23.857 68.4807 23.8128C 68.4663 23.7281 68.4508 23.6435 68.4293 23.5606C 68.4167 23.5108 68.3987 23.463 68.3836 23.4152C 68.3601 23.3414 68.3366 23.2678 68.3078 23.196C 68.2876 23.1462 68.2644 23.0966 68.242 23.0486C 68.2109 22.9807 68.1788 22.9144 68.1418 22.8501C 68.1147 22.8021 68.0861 22.7559 68.0582 22.7102C 68.0183 22.6474 67.978 22.5865 67.9336 22.5277C 67.9013 22.4837 67.8671 22.4393 67.833 22.397C 67.786 22.342 67.7372 22.2867 67.6858 22.2349C 67.6472 22.1946 67.6091 22.1541 67.5688 22.1169C 67.5147 22.0673 67.4588 22.0193 67.4021 21.9736C 67.3582 21.9385 67.3145 21.9034 67.2686 21.8704C 67.2513 21.8593 67.2363 21.8445 67.2199 21.8334L 35.8988 0.505369C 34.9092 -0.168457 33.6213 -0.168457 32.6318 0.505369L 1.31096 21.8332C 1.29477 21.8443 1.27948 21.859 1.26241 21.8701C 1.2163 21.9032 1.17308 21.9383 1.12985 21.9734C 1.07222 22.0193 1.01636 22.0673 0.963156 22.1167C 0.921703 22.1538 0.88402 22.1941 0.845006 22.2347C 0.7938 22.2865 0.745032 22.3418 0.699146 22.3968C 0.663901 22.4394 0.629764 22.4835 0.5974 22.5274C 0.554174 22.5863 0.5125 22.6472 0.47393 22.7099C 0.444226 22.7559 0.416296 22.8018 0.389253 22.8498C 0.353121 22.9142 0.320756 22.9805 0.289279 23.0484C 0.266668 23.0962 0.243172 23.146 0.223443 23.1958C 0.194626 23.2676 0.171129 23.3412 0.147853 23.415C 0.132336 23.4628 0.115489 23.5105 0.101746 23.5604C 0.0802438 23.6432 0.0658363 23.7279 0.0505411 23.8126C 0.0434476 23.8567 0.0325852 23.8991 0.0270434 23.9432C 0.00997486 24.0721 -6.49424e-07 24.2027 -6.49424e-07 24.3354L -6.49424e-07 45.6635C -6.49424e-07 45.7959 0.00975319 45.9266 0.0270434 46.0574C 0.0325852 46.1 0.0434476 46.1439 0.0505411 46.186C 0.0658363 46.2707 0.0802438 46.3554 0.101746 46.4383C 0.115489 46.4881 0.132336 46.5361 0.147853 46.5839C 0.171129 46.6572 0.194626 46.731 0.223443 46.8046C 0.243172 46.8549 0.266668 46.9027 0.289279 46.9507C 0.320977 47.0186 0.353342 47.0847 0.389253 47.1511C 0.416296 47.1972 0.444226 47.243 0.47393 47.2892C 0.5125 47.3517 0.554174 47.4126 0.5974 47.4717C 0.629764 47.5176 0.664122 47.5602 0.699146 47.6023C 0.745254 47.6573 0.7938 47.7128 0.845006 47.7644C 0.883798 47.8047 0.921703 47.8453 0.963156 47.8822C 1.01636 47.9322 1.07222 47.98 1.12985 48.0259C 1.17308 48.061 1.21652 48.0961 1.26241 48.1287C 1.27948 48.1401 1.29477 48.1548 1.31096 48.1656L 32.6318 69.4937C 33.1264 69.8304 33.6963 70 34.2657 70C 34.8345 70 35.404 69.8304 35.899 69.4937L 67.2199 48.1656C 67.2363 48.1548 67.2513 48.1401 67.2686 48.1287C 67.3145 48.0959 67.358 48.061 67.4021 48.0259C 67.4588 47.98 67.5147 47.9322 67.5688 47.8822C 67.6093 47.8455 67.6472 47.8047 67.6858 47.7644C 67.7372 47.7128 67.786 47.6573 67.833 47.6023C 67.8671 47.56 67.9013 47.5176 67.9336 47.4717C 67.978 47.4126 68.0185 47.3519 68.0582 47.2892C 68.0861 47.243 68.1147 47.1972 68.1418 47.1511C 68.1788 47.0847 68.2109 47.0186 68.242 46.9507C 68.2644 46.9027 68.2876 46.8549 68.3078 46.8046C 68.3366 46.7313 68.3599 46.6575 68.3836 46.5839C 68.3987 46.5361 68.4167 46.4881 68.4293 46.4383C 68.451 46.3554 68.4663 46.2707 68.4807 46.186C 68.488 46.1437 68.4987 46.0998 68.5049 46.0574C 68.5211 45.9266 68.5313 45.7959 68.5313 45.6635L 68.5313 24.3354C 68.5313 24.2029 68.5211 24.0723 68.5049 23.9435ZM 37.2104 8.62864L 60.2836 24.3392L 49.9775 31.3816L 37.2104 22.6583L 37.2104 8.62864L 37.2104 8.62864ZM 31.3204 8.62864L 31.3204 22.6583L 18.554 31.3816L 8.24701 24.3392L 31.3204 8.62864ZM 5.88933 29.966L 13.2572 34.9995L 5.88933 40.0335L 5.88933 29.966L 5.88933 29.966ZM 31.3204 61.3705L 8.24723 45.6596L 18.5542 38.6193L 31.3206 47.341L 31.3206 61.3705L 31.3204 61.3705ZM 34.2655 42.1157L 23.8497 34.9995L 34.2655 27.8836L 44.6807 34.9995L 34.2655 42.1157ZM 37.2104 61.3705L 37.2104 47.341L 49.9775 38.6193L 60.2836 45.6596L 37.2104 61.3705ZM 62.6413 40.0333L 55.2745 34.9993L 62.6413 29.9658L 62.6413 40.0333Z"/>
</defs>
</svg>
