<svg width="66" height="725" viewBox="0 0 66 725" version="1.1" xmlns="http://www.w3.org/2000/svg" xmlns:xlink="http://www.w3.org/1999/xlink">
<title>Group 3</title>
<desc>Created using Figma</desc>
<g id="Canvas" transform="translate(-9359 -2156)">
<g id="Group 3">
<g id="Group 2.6">
<g id="Vector">
<use xlink:href="#path0_stroke" transform="translate(9379.82 2836.21)" fill="#F1E4C1"/>
</g>
<g id="Vector">
<use xlink:href="#path1_stroke" transform="translate(9375.86 2840.7)" fill="#F1E4C1"/>
</g>
<g id="Vector">
<use xlink:href="#path2_stroke" transform="translate(9371.89 2845.19)" fill="#F1E4C1"/>
</g>
<g id="Vector">
<use xlink:href="#path3_stroke" transform="translate(9368.5 2850.25)" fill="#F1E4C1"/>
</g>
<g id="Vector">
<use xlink:href="#path4_stroke" transform="translate(9365.66 2855.86)" fill="#F1E4C1"/>
</g>
<g id="Vector">
<use xlink:href="#path5_stroke" transform="translate(9363.4 2862.03)" fill="#F1E4C1"/>
</g>
<g id="Vector">
<use xlink:href="#path6_stroke" transform="translate(9361.7 2868.77)" fill="#F1E4C1"/>
</g>
<g id="Vector">
<use xlink:href="#path7_stroke" transform="translate(9360 2875.51)" fill="#F1E4C1"/>
</g>
<g id="Vector">
<use xlink:href="#path8_stroke" transform="translate(9383.79 2832.28)" fill="#F1E4C1"/>
</g>
<g id="Vector">
<use xlink:href="#path9_stroke" transform="translate(9388.32 2828.35)" fill="#F1E4C1"/>
</g>
<g id="Vector">
<use xlink:href="#path10_stroke" transform="translate(9393.42 2824.98)" fill="#F1E4C1"/>
</g>
<g id="Vector">
<use xlink:href="#path11_stroke" transform="translate(9399.08 2822.18)" fill="#F1E4C1"/>
</g>
<g id="Vector">
<use xlink:href="#path12_stroke" transform="translate(9404.74 2819.37)" fill="#F1E4C1"/>
</g>
<g id="Vector">
<use xlink:href="#path13_stroke" transform="translate(9411.54 2817.68)" fill="#F1E4C1"/>
</g>
<g id="Vector">
<use xlink:href="#path14_stroke" transform="translate(9418.34 2816)" fill="#F1E4C1"/>
</g>
</g>
<g id="Group 2.9">
<g id="Vector">
<use xlink:href="#path0_stroke" transform="matrix(2.08167e-16 -1 1 2.08167e-16 9380.21 2201.18)" fill="#F1E4C1"/>
</g>
<g id="Vector">
<use xlink:href="#path1_stroke" transform="matrix(2.08167e-16 -1 1 2.08167e-16 9384.7 2205.14)" fill="#F1E4C1"/>
</g>
<g id="Vector">
<use xlink:href="#path2_stroke" transform="matrix(2.08167e-16 -1 1 2.08167e-16 9389.19 2209.11)" fill="#F1E4C1"/>
</g>
<g id="Vector">
<use xlink:href="#path3_stroke" transform="matrix(2.08167e-16 -1 1 2.08167e-16 9394.25 2212.5)" fill="#F1E4C1"/>
</g>
<g id="Vector">
<use xlink:href="#path4_stroke" transform="matrix(2.08167e-16 -1 1 2.08167e-16 9399.86 2215.34)" fill="#F1E4C1"/>
</g>
<g id="Vector">
<use xlink:href="#path5_stroke" transform="matrix(2.08167e-16 -1 1 2.08167e-16 9406.04 2217.6)" fill="#F1E4C1"/>
</g>
<g id="Vector">
<use xlink:href="#path6_stroke" transform="matrix(2.08167e-16 -1 1 2.08167e-16 9412.77 2219.3)" fill="#F1E4C1"/>
</g>
<g id="Vector">
<use xlink:href="#path7_stroke" transform="matrix(2.08167e-16 -1 1 2.08167e-16 9419.51 2221)" fill="#F1E4C1"/>
</g>
<g id="Vector">
<use xlink:href="#path8_stroke" transform="matrix(2.08167e-16 -1 1 2.08167e-16 9376.28 2197.21)" fill="#F1E4C1"/>
</g>
<g id="Vector">
<use xlink:href="#path9_stroke" transform="matrix(2.08167e-16 -1 1 2.08167e-16 9372.35 2192.68)" fill="#F1E4C1"/>
</g>
<g id="Vector">
<use xlink:href="#path10_stroke" transform="matrix(2.08167e-16 -1 1 2.08167e-16 9368.98 2187.58)" fill="#F1E4C1"/>
</g>
<g id="Vector">
<use xlink:href="#path11_stroke" transform="matrix(2.08167e-16 -1 1 2.08167e-16 9366.17 2181.92)" fill="#F1E4C1"/>
</g>
<g id="Vector">
<use xlink:href="#path12_stroke" transform="matrix(2.08167e-16 -1 1 2.08167e-16 9363.37 2176.26)" fill="#F1E4C1"/>
</g>
<g id="Vector">
<use xlink:href="#path13_stroke" transform="matrix(2.08167e-16 -1 1 2.08167e-16 9361.68 2169.46)" fill="#F1E4C1"/>
</g>
<g id="Vector">
<use xlink:href="#path14_stroke" transform="matrix(2.08167e-16 -1 1 2.08167e-16 9360 2162.66)" fill="#F1E4C1"/>
</g>
</g>
</g>
</g>
<defs>
<path id="path0_stroke" d="M 43.473 44.4997C 43.8652 44.8885 44.4984 44.8857 44.8872 44.4935C 45.276 44.1012 45.2732 43.4681 44.881 43.0793L 43.473 44.4997ZM 0.703985 -0.710215C 0.311744 -1.09901 -0.321415 -1.09623 -0.710215 -0.703985C -1.09901 -0.311744 -1.09623 0.321415 -0.703985 0.710215L 0.703985 -0.710215ZM 44.881 43.0793L 0.703985 -0.710215L -0.703985 0.710215L 43.473 44.4997L 44.881 43.0793Z"/>
<path id="path1_stroke" d="M 38.942 40.0085C 39.3343 40.3973 39.9674 40.3945 40.3562 40.0022C 40.745 39.61 40.7422 38.9768 40.35 38.588L 38.942 40.0085ZM 0.703985 -0.710215C 0.311744 -1.09901 -0.321415 -1.09623 -0.710215 -0.703985C -1.09901 -0.311744 -1.09623 0.321415 -0.703985 0.710215L 0.703985 -0.710215ZM 40.35 38.588L 0.703985 -0.710215L -0.703985 0.710215L 38.942 40.0085L 40.35 38.588Z"/>
<path id="path2_stroke" d="M 34.4111 35.5172C 34.8033 35.906 35.4365 35.9032 35.8253 35.511C 36.2141 35.1188 36.2113 34.4856 35.819 34.0968L 34.4111 35.5172ZM 0.703985 -0.710215C 0.311744 -1.09901 -0.321415 -1.09623 -0.710215 -0.703985C -1.09901 -0.311744 -1.09623 0.321415 -0.703985 0.710215L 0.703985 -0.710215ZM 35.819 34.0968L 0.703985 -0.710215L -0.703985 0.710215L 34.4111 35.5172L 35.819 34.0968Z"/>
<path id="path3_stroke" d="M 29.3137 30.4646C 29.706 30.8534 30.3391 30.8506 30.7279 30.4584C 31.1167 30.0661 31.1139 29.433 30.7217 29.0442L 29.3137 30.4646ZM 0.703985 -0.710215C 0.311744 -1.09901 -0.321415 -1.09623 -0.710215 -0.703985C -1.09901 -0.311744 -1.09623 0.321415 -0.703985 0.710215L 0.703985 -0.710215ZM 30.7217 29.0442L 0.703985 -0.710215L -0.703985 0.710215L 29.3137 30.4646L 30.7217 29.0442Z"/>
<path id="path4_stroke" d="M 23.65 24.8506C 24.0422 25.2394 24.6754 25.2366 25.0642 24.8443C 25.453 24.4521 25.4502 23.8189 25.058 23.4301L 23.65 24.8506ZM 0.703985 -0.710215C 0.311744 -1.09901 -0.321415 -1.09623 -0.710215 -0.703985C -1.09901 -0.311744 -1.09623 0.321415 -0.703985 0.710215L 0.703985 -0.710215ZM 25.058 23.4301L 0.703985 -0.710215L -0.703985 0.710215L 23.65 24.8506L 25.058 23.4301Z"/>
<path id="path5_stroke" d="M 17.4199 18.6751C 17.8121 19.0639 18.4453 19.0611 18.8341 18.6689C 19.2229 18.2767 19.2201 17.6435 18.8279 17.2547L 17.4199 18.6751ZM 0.703985 -0.710215C 0.311744 -1.09901 -0.321415 -1.09623 -0.710215 -0.703985C -1.09901 -0.311744 -1.09623 0.321415 -0.703985 0.710215L 0.703985 -0.710215ZM 18.8279 17.2547L 0.703985 -0.710215L -0.703985 0.710215L 17.4199 18.6751L 18.8279 17.2547Z"/>
<path id="path6_stroke" d="M 10.6234 11.9383C 11.0157 12.3271 11.6488 12.3243 12.0376 11.9321C 12.4264 11.5398 12.4237 10.9067 12.0314 10.5179L 10.6234 11.9383ZM 0.703985 -0.710215C 0.311744 -1.09901 -0.321415 -1.09623 -0.710215 -0.703985C -1.09901 -0.311744 -1.09623 0.321415 -0.703985 0.710215L 0.703985 -0.710215ZM 12.0314 10.5179L 0.703985 -0.710215L -0.703985 0.710215L 10.6234 11.9383L 12.0314 10.5179Z"/>
<path id="path7_stroke" d="M 3.82699 5.20144C 4.21923 5.59024 4.85239 5.58745 5.24119 5.19521C 5.62999 4.80297 5.6272 4.16981 5.23496 3.78101L 3.82699 5.20144ZM 0.703985 -0.710215C 0.311744 -1.09901 -0.321415 -1.09623 -0.710215 -0.703985C -1.09901 -0.311744 -1.09623 0.321415 -0.703985 0.710215L 0.703985 -0.710215ZM 5.23496 3.78101L 0.703985 -0.710215L -0.703985 0.710215L 3.82699 5.20144L 5.23496 3.78101Z"/>
<path id="path8_stroke" d="M 39.5084 40.5699C 39.9006 40.9587 40.5338 40.9559 40.9226 40.5636C 41.3114 40.1714 41.3086 39.5382 40.9164 39.1494L 39.5084 40.5699ZM 0.703985 -0.710215C 0.311744 -1.09901 -0.321415 -1.09623 -0.710215 -0.703985C -1.09901 -0.311744 -1.09623 0.321415 -0.703985 0.710215L 0.703985 -0.710215ZM 40.9164 39.1494L 0.703985 -0.710215L -0.703985 0.710215L 39.5084 40.5699L 40.9164 39.1494Z"/>
<path id="path9_stroke" d="M 34.9774 36.0786C 35.3697 36.4674 36.0028 36.4646 36.3916 36.0724C 36.7804 35.6802 36.7776 35.047 36.3854 34.6582L 34.9774 36.0786ZM 0.703985 -0.710215C 0.311744 -1.09901 -0.321415 -1.09623 -0.710215 -0.703985C -1.09901 -0.311744 -1.09623 0.321415 -0.703985 0.710215L 0.703985 -0.710215ZM 36.3854 34.6582L 0.703985 -0.710215L -0.703985 0.710215L 34.9774 36.0786L 36.3854 34.6582Z"/>
<path id="path10_stroke" d="M 29.8801 31.026C 30.2723 31.4148 30.9055 31.412 31.2943 31.0198C 31.6831 30.6275 31.6803 29.9944 31.2881 29.6056L 29.8801 31.026ZM 0.703985 -0.710215C 0.311744 -1.09901 -0.321415 -1.09623 -0.710215 -0.703985C -1.09901 -0.311744 -1.09623 0.321415 -0.703985 0.710215L 0.703985 -0.710215ZM 31.2881 29.6056L 0.703985 -0.710215L -0.703985 0.710215L 29.8801 31.026L 31.2881 29.6056Z"/>
<path id="path11_stroke" d="M 24.2164 25.412C 24.6086 25.8008 25.2418 25.798 25.6306 25.4057C 26.0194 25.0135 26.0166 24.3803 25.6243 23.9915L 24.2164 25.412ZM 0.703985 -0.710215C 0.311744 -1.09901 -0.321415 -1.09623 -0.710215 -0.703985C -1.09901 -0.311744 -1.09623 0.321415 -0.703985 0.710215L 0.703985 -0.710215ZM 25.6243 23.9915L 0.703985 -0.710215L -0.703985 0.710215L 24.2164 25.412L 25.6243 23.9915Z"/>
<path id="path12_stroke" d="M 18.5527 19.7979C 18.9449 20.1867 19.5781 20.1839 19.9669 19.7917C 20.3557 19.3995 20.3529 18.7663 19.9606 18.3775L 18.5527 19.7979ZM 0.703985 -0.710215C 0.311744 -1.09901 -0.321415 -1.09623 -0.710215 -0.703985C -1.09901 -0.311744 -1.09623 0.321415 -0.703985 0.710215L 0.703985 -0.710215ZM 19.9606 18.3775L 0.703985 -0.710215L -0.703985 0.710215L 18.5527 19.7979L 19.9606 18.3775Z"/>
<path id="path13_stroke" d="M 11.7562 13.0611C 12.1484 13.4499 12.7816 13.4471 13.1704 13.0549C 13.5592 12.6626 13.5564 12.0295 13.1642 11.6407L 11.7562 13.0611ZM 0.703985 -0.710215C 0.311744 -1.09901 -0.321415 -1.09623 -0.710215 -0.703985C -1.09901 -0.311744 -1.09623 0.321415 -0.703985 0.710215L 0.703985 -0.710215ZM 13.1642 11.6407L 0.703985 -0.710215L -0.703985 0.710215L 11.7562 13.0611L 13.1642 11.6407Z"/>
<path id="path14_stroke" d="M 4.95973 6.32425C 5.35197 6.71305 5.98513 6.71026 6.37393 6.31802C 6.76273 5.92578 6.75994 5.29262 6.3677 4.90382L 4.95973 6.32425ZM 0.703985 -0.710215C 0.311744 -1.09901 -0.321415 -1.09623 -0.710215 -0.703985C -1.09901 -0.311744 -1.09623 0.321415 -0.703985 0.710215L 0.703985 -0.710215ZM 6.3677 4.90382L 0.703985 -0.710215L -0.703985 0.710215L 4.95973 6.32425L 6.3677 4.90382Z"/>
</defs>
</svg>
