<svg width="136" height="58" viewBox="0 0 136 58" version="1.1" xmlns="http://www.w3.org/2000/svg" xmlns:xlink="http://www.w3.org/1999/xlink">
<title>django-logo-negative</title>
<desc>Created using Figma</desc>
<g id="Canvas" transform="translate(-8304 -2860)">
<g id="django-logo-negative">
<g id="Vector">
<use xlink:href="#path0_fill" transform="translate(8304 2860)" fill="#092E20"/>
</g>
<g id="Group">
<g id="Group">
<g id="Vector">
<use xlink:href="#path1_fill" transform="translate(8313.57 2869.11)" fill="#FFFFFF"/>
</g>
<g id="Vector">
<use xlink:href="#path2_fill" transform="translate(8331.39 2869.14)" fill="#FFFFFF"/>
</g>
<g id="Vector">
<use xlink:href="#path3_fill" transform="translate(8346.69 2878.55)" fill="#FFFFFF"/>
</g>
<g id="Vector">
<use xlink:href="#path4_fill" transform="translate(8366.85 2878.55)" fill="#FFFFFF"/>
</g>
<g id="Vector">
<use xlink:href="#path5_fill" transform="translate(8387.84 2878.59)" fill="#FFFFFF"/>
</g>
<g id="Vector">
<use xlink:href="#path6_fill" transform="translate(8410.3 2878.47)" fill="#FFFFFF"/>
</g>
</g>
</g>
</g>
</g>
<defs>
<path id="path0_fill" d="M 136 50.4813C 136 54.6338 132.618 58 128.446 58L 7.55421 58C 3.38213 58 0 54.6338 0 50.4813L 0 7.51873C 0 3.36624 3.38213 0 7.55421 0L 128.446 0C 132.618 0 136 3.36624 136 7.51873L 136 50.4813Z"/>
<path id="path1_fill" d="M 13.8844 -3.4418e-07L 20.3249 -3.4418e-07L 20.3249 29.671C 17.021 30.2954 14.5953 30.5451 11.9607 30.5451C 4.09843 30.5451 -4.19905e-07 27.0075 -4.19905e-07 20.2222C -4.19905e-07 13.6873 4.3496 9.44164 11.0826 9.44164C 12.128 9.44164 12.9225 9.52515 13.8846 9.77435L 13.8846 -3.4418e-07L 13.8844 -3.4418e-07ZM 13.8844 14.9354C 13.1316 14.686 12.5044 14.6027 11.7098 14.6027C 8.44776 14.6027 6.56568 16.6008 6.56568 20.0968C 6.56568 23.5105 8.36413 25.3835 11.668 25.3835C 12.3786 25.3835 12.9644 25.3419 13.8844 25.2175L 13.8844 14.9354Z"/>
<path id="path2_fill" d="M 12.7555 9.86484L 12.7555 24.7253C 12.7555 29.8448 12.3792 32.3004 11.2501 34.4237C 10.2044 36.4634 8.82412 37.7531 5.9805 39.1685L -1.64669e-08 36.338C 2.84389 35.0061 4.22388 33.8415 5.10206 32.0507C 6.02232 30.2196 6.31532 28.0961 6.31532 22.5186L 6.31532 9.86484L 12.7555 9.86484ZM 6.31532 3.85154e-07L 12.7555 3.85154e-07L 12.7555 6.57701L 6.31532 6.57701L 6.31532 3.85154e-07L 6.31532 3.85154e-07Z"/>
<path id="path3_fill" d="M 1.33845 1.91459C 4.1826 0.582433 6.90077 6.39191e-07 9.87011 6.39191e-07C 13.174 6.39191e-07 15.3485 0.874053 16.3106 2.5808C 16.854 3.53783 17.0212 4.78648 17.0212 7.45106L 17.0212 20.4791C 14.1353 20.8959 10.4971 21.187 7.82076 21.187C 2.42598 21.187 1.91016e-06 19.3135 1.91016e-06 15.1516C 1.91016e-06 10.6554 3.22025 8.57457 11.1246 7.90809L 11.1246 6.49269C 11.1246 5.32756 10.5392 4.91161 8.90803 4.91161C 6.52441 4.91161 3.84779 5.57728 1.33817 6.86782L 1.33817 1.91459L 1.33845 1.91459ZM 11.4174 12.1127C 7.15141 12.5294 5.77142 13.1951 5.77142 14.86C 5.77142 16.1086 6.56622 16.6916 8.32258 16.6916C 9.28466 16.6916 10.1626 16.6081 11.4174 16.4005L 11.4174 12.1127Z"/>
<path id="path4_fill" d="M 6.25741e-07 1.45702C 3.80543 0.457568 6.94205 6.39191e-07 10.1205 6.39191e-07C 13.4244 6.39191e-07 15.8083 0.74865 17.2306 2.20621C 18.5688 3.57918 18.9867 5.07756 18.9867 8.28349L 18.9867 20.854L 12.5465 20.854L 12.5465 8.53295C 12.5465 6.07728 11.7101 5.16107 9.41011 5.16107C 8.53193 5.16107 7.7374 5.24458 6.4405 5.61917L 6.4405 20.8537L 0.000268212 20.8537L 0.000268212 1.45702L 6.25741e-07 1.45702Z"/>
<path id="path5_fill" d="M 0.502351 24.3088C 2.76106 25.474 5.01923 26.0151 7.40286 26.0151C 11.6265 26.0151 13.4249 24.3088 13.4249 20.2294C 13.4249 20.188 13.4249 20.1462 13.4249 20.104C 12.1704 20.7286 10.9156 20.9786 9.24311 20.9786C 3.59715 20.9786 -3.68858e-06 17.2737 -3.68858e-06 11.4051C -3.68858e-06 4.12053 5.31169 3.11401e-07 14.721 3.11401e-07C 17.4815 3.11401e-07 20.0327 0.291082 23.1275 0.914868L 20.9222 5.53942C 19.2074 5.20618 20.7849 5.49458 19.489 5.36971L 19.489 6.03566L 19.5724 8.74079L 19.614 12.2375C 19.6558 13.111 19.6558 13.9856 19.6979 14.8594C 19.6979 15.6502 19.6979 16.0254 19.6979 16.6081C 19.6979 22.1026 19.2379 24.6834 17.8579 26.8059C 15.8503 29.928 12.3792 31.468 7.4444 31.468C 4.93506 31.468 2.7608 31.0932 0.502087 30.2191L 0.502087 24.3088L 0.502351 24.3088ZM 13.2997 5.16134C 13.2161 5.16134 13.1327 5.16134 13.0909 5.16134L 12.6306 5.16134C 11.3764 5.11972 9.91274 5.45242 8.90857 6.07674C 7.36158 6.95133 6.5665 8.53268 6.5665 10.7808C 6.5665 13.9862 8.15612 15.8173 10.9997 15.8173C 11.8779 15.8173 12.5891 15.6508 13.4252 15.401L 13.4252 14.9432L 13.4252 13.1951C 13.4252 12.4459 13.3836 11.6129 13.3836 10.7392L 13.3421 7.78376L 13.3 5.66106L 13.3 5.16134L 13.2997 5.16134Z"/>
<path id="path6_fill" d="M 10.6647 -9.01424e-07C 17.1049 -9.01424e-07 21.0363 4.03782 21.0363 10.5721C 21.0363 17.2737 16.9382 21.4778 10.4137 21.4778C 3.97298 21.4778 2.04189e-06 17.4402 2.04189e-06 10.9473C 0.000271835 4.20351 4.09897 -9.01424e-07 10.6647 -9.01424e-07ZM 10.5387 16.3164C 13.0065 16.3164 14.4704 14.2767 14.4704 10.7384C 14.4704 7.24241 13.0483 5.1608 10.5813 5.1608C 8.02986 5.1608 6.56569 7.20106 6.56569 10.7384C 6.56596 14.277 8.02985 16.3164 10.5387 16.3164Z"/>
</defs>
</svg>
