<svg width="67" height="67" viewBox="0 0 67 67" version="1.1" xmlns="http://www.w3.org/2000/svg" xmlns:xlink="http://www.w3.org/1999/xlink">
<title>Github</title>
<desc>Created using Figma</desc>
<g id="Canvas" transform="translate(-8402 -2610)">
<g id="Github">
<g id="Vector">
<use xlink:href="#path0_fill" transform="translate(8402 2610)" fill="#F1E4C1"/>
</g>
</g>
</g>
<defs>
<path id="path0_fill" d="M 33.3138 0C 14.9164 0 0 15.1749 0 33.8912C 0 48.8675 9.54441 61.5685 22.7833 66.0489C 24.4486 66.3592 25.0565 65.3125 25.0565 64.4189C 25.0565 63.6121 25.026 60.9396 25.0098 58.1098C 15.746 60.1577 13.7879 54.1134 13.7879 54.1134C 12.2711 50.1997 10.0893 49.1571 10.0893 49.1571C 7.06168 47.0555 10.319 47.0968 10.319 47.0968C 13.6637 47.3326 15.4247 50.5886 15.4247 50.5886C 18.3974 55.7682 23.2245 54.2706 25.1195 53.4018C 25.4223 51.2174 26.2845 49.7198 27.2342 48.8758C 19.839 48.0195 12.0596 45.111 12.0596 32.1246C 12.0596 28.4219 13.3589 25.4018 15.4857 23.0292C 15.1461 22.1687 13.9993 18.7204 15.8151 14.0558C 15.8151 14.0558 18.6089 13.1457 24.9772 17.531C 27.6326 16.776 30.4814 16.4037 33.3137 16.3912C 36.1441 16.4037 38.9948 16.7801 41.6544 17.5351C 48.0106 13.1457 50.8084 14.0599 50.8084 14.0599C 52.6303 18.7287 51.4835 22.1728 51.1419 23.0292C 53.2769 25.4018 54.566 28.4219 54.566 32.1246C 54.566 45.1441 46.7743 48.0111 39.3528 48.851C 40.5525 49.9018 41.6138 51.9621 41.6138 55.1228C 41.6138 59.653 41.5691 63.306 41.5691 64.4231C 41.5691 65.3249 42.175 66.3799 43.8626 66.0489C 57.0914 61.5602 66.6276 48.8593 66.6276 33.8912C 66.6276 15.1749 51.7112 0 33.3138 0Z"/>
</defs>
</svg>
