<svg width="65" height="67" viewBox="0 0 65 67" version="1.1" xmlns="http://www.w3.org/2000/svg" xmlns:xlink="http://www.w3.org/1999/xlink">
<title>Linkedin 2.1</title>
<desc>Created using Figma</desc>
<g id="Canvas" transform="translate(-8518 -2608)">
<g id="Linkedin 2.1">
<g id="Vector">
<use xlink:href="#path0_fill" transform="translate(8518 2608)" fill="#F1E4C1"/>
</g>
</g>
</g>
<defs>
<path id="path0_fill" d="M 51.2398 0L 13.4842 0C 6.03821 0 0 6.16762 0 13.7731L 0 52.338C 0 59.9435 6.03821 66.1111 13.4842 66.1111L 51.2398 66.1111C 58.6885 66.1111 64.724 59.9435 64.724 52.338L 64.724 13.7731C 64.724 6.16762 58.6885 0 51.2398 0ZM 21.5747 52.338L 13.4842 52.338L 13.4842 22.037L 21.5747 22.037L 21.5747 52.338ZM 17.5294 18.5442C 14.9243 18.5442 12.81 16.368 12.81 13.685C 12.81 11.002 14.9243 8.82583 17.5294 8.82583C 20.1346 8.82583 22.2489 11.002 22.2489 13.685C 22.2489 16.368 20.1372 18.5442 17.5294 18.5442ZM 53.9367 52.338L 45.8462 52.338L 45.8462 36.901C 45.8462 27.6234 35.0588 28.3259 35.0588 36.901L 35.0588 52.338L 26.9683 52.338L 26.9683 22.037L 35.0588 22.037L 35.0588 26.899C 38.8236 19.7755 53.9367 19.2494 53.9367 33.7194L 53.9367 52.338Z"/>
</defs>
</svg>
