<svg width="118" height="72" viewBox="0 0 118 72" version="1.1" xmlns="http://www.w3.org/2000/svg" xmlns:xlink="http://www.w3.org/1999/xlink">
<title>Technology-Logo-NodeJS</title>
<desc>Created using Figma</desc>
<g id="Canvas" transform="translate(-8327 -2721)">
<g id="Technology-Logo-NodeJS">
<g id="Vector">
<use xlink:href="#path0_fill" transform="translate(8372.42 2764.03)" fill="#689F63"/>
</g>
<g id="Vector">
<use xlink:href="#path1_fill" transform="translate(8382.97 2769.68)" fill="#689F63"/>
</g>
<g id="Vector">
<use xlink:href="#path2_fill" transform="translate(8327 2721)" fill="#333333"/>
</g>
<g id="Vector">
<use xlink:href="#path3_fill" transform="translate(8429.94 2748.92)" fill="#689F63"/>
</g>
<g id="Group">
<g id="Vector">
<use xlink:href="#path4_fill" transform="translate(8346.6 2727.53)" fill="url(#paint4_linear)"/>
</g>
</g>
<g id="Group">
<g id="Vector">
<use xlink:href="#path5_fill" transform="translate(8344.54 2725.81)" fill="url(#paint5_linear)"/>
</g>
</g>
<g id="Group">
<g id="Vector">
<use xlink:href="#path6_fill" transform="translate(8358.67 2737.45)" fill="url(#paint6_linear)"/>
</g>
</g>
</g>
</g>
<defs>
<linearGradient id="paint4_linear" x1="0" y1="0" x2="1" y2="0" gradientUnits="userSpaceOnUse" gradientTransform="matrix(-16.2357 32.9972 -33.1206 -16.1752 48.6209 15.7953)">
<stop offset="0.3" stop-color="#3E863D"/>
<stop offset="0.5" stop-color="#55934F"/>
<stop offset="0.8" stop-color="#5AAD45"/>
</linearGradient>
<linearGradient id="paint5_linear" x1="0" y1="0" x2="1" y2="0" gradientUnits="userSpaceOnUse" gradientTransform="matrix(29.5725 -21.7692 21.8506 29.4624 0.388662 22.2826)">
<stop offset="0.57" stop-color="#3E863D"/>
<stop offset="0.72" stop-color="#619857"/>
<stop offset="1" stop-color="#76AC64"/>
</linearGradient>
<linearGradient id="paint6_linear" x1="0" y1="0" x2="1" y2="0" gradientUnits="userSpaceOnUse" gradientTransform="matrix(24.4524 0 0 24.3613 0.00825069 2.095)">
<stop offset="0.16" stop-color="#6BBF47"/>
<stop offset="0.38" stop-color="#79B461"/>
<stop offset="0.47" stop-color="#75AC64"/>
<stop offset="0.7" stop-color="#659E5A"/>
<stop offset="0.9" stop-color="#3E863D"/>
</linearGradient>
<path id="path0_fill" d="M 12.9035 28.9732C 12.5141 28.9732 12.1273 28.8714 11.7859 28.6755L 8.22828 26.5771C 7.69693 26.2811 7.9562 26.1764 8.13146 26.1161C 8.83993 25.8689 8.98371 25.8131 9.73993 25.3852C 9.81942 25.3401 9.92345 25.356 10.0048 25.4039L 12.7379 27.0196C 12.8366 27.0728 12.9766 27.0728 13.0681 27.0196L 23.7246 20.8914C 23.8233 20.8356 23.8873 20.7213 23.8873 20.6044L 23.8873 8.35324C 23.8873 8.23099 23.8233 8.12203 23.7224 8.06091L 13.0702 1.93799C 12.9715 1.87953 12.8408 1.87953 12.7421 1.93799L 2.09208 8.06091C 1.98885 8.11937 1.92323 8.23365 1.92323 8.35058L 1.92323 20.6017C 1.92323 20.7187 1.98725 20.8303 2.08861 20.8861L 5.0068 22.5656C 6.59127 23.3549 7.55956 22.4248 7.55956 21.4893L 7.55956 9.39764C 7.55956 9.2249 7.69559 9.09202 7.86898 9.09202L 9.21871 9.09202C 9.38676 9.09202 9.52547 9.2249 9.52547 9.39764L 9.52547 21.4946C 9.52547 23.5994 8.37313 24.8086 6.36987 24.8086C 5.75369 24.8086 5.26821 24.8086 3.91315 24.1442L 1.11766 22.5391C 0.426791 22.1404 -1.33503e-06 21.3963 -1.33503e-06 20.6017L -1.33503e-06 8.35058C -1.33503e-06 7.55332 0.426791 6.80922 1.11766 6.41591L 11.7848 0.28502C 12.4597 -0.0950051 13.3559 -0.0950051 14.0255 0.28502L 24.6792 6.41857C 25.3675 6.81454 25.7969 7.55598 25.7969 8.35324L 25.7969 20.6044C 25.7969 21.399 25.3675 22.1404 24.6792 22.5391L 14.0255 28.6699C 13.684 28.8666 13.2972 28.9676 12.9025 28.9676"/>
<path id="path1_fill" d="M 5.64032 14.8829C 0.977621 14.8829 -1.2699e-06 12.7505 -1.2699e-06 10.962C -1.2699e-06 10.7919 0.137639 10.6564 0.308622 10.6564L 1.68503 10.6564C 1.83707 10.6564 1.96511 10.7667 1.98912 10.9163C 2.19718 12.3136 2.81603 13.0184 5.63552 13.0184C 7.88151 13.0184 8.83646 12.5129 8.83646 11.3263C 8.83646 10.6434 8.56438 10.1358 5.07536 9.7956C 2.15717 9.50859 0.353972 8.86813 0.353972 6.5428C 0.353972 4.40085 2.16784 3.12524 5.20606 3.12524C 8.61773 3.12524 10.3089 4.30518 10.5223 6.84045C 10.5303 6.92814 10.4983 7.01318 10.4396 7.07696C 10.3809 7.13809 10.2982 7.17529 10.2129 7.17529L 8.82846 7.17529C 8.68442 7.17529 8.55905 7.07431 8.52971 6.93612C 8.19627 5.46651 7.39071 4.99613 5.20073 4.99613C 2.74934 4.99613 2.46392 5.84654 2.46392 6.48434C 2.46392 7.25768 2.80002 7.48356 6.10766 7.9194C 9.38329 8.35257 10.9384 8.9638 10.9384 11.2572C 10.9384 13.5693 9.00185 14.8954 5.62485 14.8954L 5.64032 14.8829ZM 18.6047 1.90278L 18.9621 1.90278C 19.2555 1.90278 19.3115 1.69815 19.3115 1.57856C 19.3115 1.26498 19.0955 1.26498 18.9754 1.26498L 18.6073 1.26498L 18.6047 1.90278ZM 18.1699 0.89824L 18.9621 0.89824C 19.2342 0.89824 19.7677 0.89824 19.7677 1.50415C 19.7677 1.9267 19.4956 2.0144 19.3329 2.06755C 19.6503 2.08881 19.6716 2.29609 19.7143 2.58842C 19.7357 2.77179 19.7703 3.08803 19.8344 3.19433L 19.3462 3.19433C 19.3329 3.08803 19.2582 2.50338 19.2582 2.47149C 19.2262 2.34127 19.1808 2.27749 19.0181 2.27749L 18.6153 2.27749L 18.6153 3.19699L 18.1699 3.19699L 18.1699 0.89824ZM 17.2176 2.04097C 17.2176 2.99236 17.9885 3.76304 18.9354 3.76304C 19.8904 3.76304 20.6613 2.97642 20.6613 2.04097C 20.6613 1.08692 19.8797 0.329532 18.9328 0.329532C 17.9992 0.329532 17.2149 1.07629 17.2149 2.03831L 17.2176 2.04097ZM 20.992 2.04628C 20.992 3.17307 20.0664 4.09258 18.9381 4.09258C 17.8178 4.09258 16.8842 3.1837 16.8842 2.04628C 16.8842 0.887608 17.8391 -1.20029e-06 18.9381 -1.20029e-06C 20.0451 -1.20029e-06 20.9894 0.890266 20.9894 2.04628"/>
<path id="path2_fill" fill-rule="evenodd" d="M 25.3237 24.0637C 25.3237 23.5748 25.065 23.1256 24.6414 22.8825L 13.3431 16.4061C 13.1524 16.2945 12.9387 16.236 12.7221 16.2281L 12.6053 16.2281C 12.3887 16.236 12.175 16.2945 11.9811 16.4061L 0.683401 22.8825C 0.262477 23.127 0 23.5761 0 24.0651L 0.0248073 41.509C 0.0248073 41.7508 0.150177 41.9767 0.363573 42.0963C 0.571635 42.2239 0.833045 42.2239 1.04111 42.0963L 7.75775 38.2642C 8.18187 38.0128 8.44061 37.5684 8.44061 37.0842L 8.44061 28.935C 8.44061 28.4486 8.69936 27.9995 9.12215 27.7577L 11.9817 26.1169C 12.194 25.9947 12.4271 25.9341 12.6645 25.9341C 12.8982 25.9341 13.1367 25.9942 13.3431 26.1167L 16.2013 27.7569C 16.6243 27.9987 16.8842 28.4478 16.8842 28.9342L 16.8842 37.0829C 16.8842 37.5666 17.1464 38.013 17.5684 38.2628L 24.2807 42.0923C 24.4915 42.2172 24.7537 42.2172 24.9636 42.0923C 25.1706 41.9727 25.3018 41.7468 25.3018 41.505L 25.3237 24.0637ZM 78.6375 33.1461C 78.6375 33.2675 78.5727 33.3799 78.4668 33.44L 74.5862 35.6686C 74.4808 35.7289 74.3506 35.7289 74.2455 35.6686L 70.3644 33.44C 70.2577 33.3797 70.1937 33.2673 70.1937 33.1461L 70.1937 28.6825C 70.1937 28.5608 70.2577 28.4486 70.3617 28.3875L 74.2402 26.1552C 74.3469 26.0941 74.4776 26.0941 74.5843 26.1552L 78.4655 28.3875C 78.5722 28.4486 78.6362 28.5608 78.6362 28.6825L 78.6375 33.1461ZM 79.6858 0.086046C 79.474 -0.0314162 79.2163 -0.0282272 79.0072 0.0932213C 78.7991 0.215467 78.6706 0.438698 78.6706 0.680532L 78.6706 17.9544C 78.6706 18.1245 78.5799 18.2813 78.4321 18.3663C 78.2854 18.4513 78.1027 18.4513 77.9546 18.3663L 75.1245 16.7423C 74.703 16.4994 74.1839 16.4994 73.7609 16.7423L 62.4589 23.2407C 62.0366 23.4825 61.776 23.9317 61.776 24.4153L 61.776 37.4159C 61.776 37.9022 62.0366 38.3487 62.4589 38.5932L 73.7609 45.0961C 74.1829 45.3379 74.7025 45.3379 75.1258 45.0961L 86.4278 38.5905C 86.8493 38.346 87.1107 37.8996 87.1107 37.4132L 87.1107 5.01281C 87.1107 4.51958 86.8412 4.06594 86.4091 3.8249L 79.6858 0.086046ZM 117.322 28.565C 117.742 28.3221 118 27.8736 118 27.3899L 118 24.2391C 118 23.7544 117.741 23.3071 117.321 23.0632L 106.091 16.5682C 105.667 16.3237 105.146 16.3237 104.722 16.5682L 93.4229 23.0658C 92.9988 23.3103 92.74 23.7568 92.74 24.2431L 92.74 37.2384C 92.74 37.7274 93.0041 38.1791 93.4282 38.421L 104.656 44.7963C 105.069 45.0329 105.576 45.0355 105.995 44.8043L 112.786 41.0439C 112.999 40.9244 113.135 40.6985 113.135 40.454C 113.135 40.2095 113.005 39.9809 112.791 39.8613L 101.423 33.3611C 101.209 33.2415 101.078 33.0156 101.078 32.7737L 101.078 28.6971C 101.078 28.4537 101.207 28.2294 101.42 28.1082L 104.957 26.0752C 105.168 25.953 105.426 25.953 105.637 26.0752L 109.177 28.1082C 109.388 28.2278 109.518 28.4537 109.518 28.6955L 109.518 31.9005C 109.518 32.1423 109.649 32.3682 109.86 32.4905C 110.07 32.61 110.332 32.61 110.543 32.4878L 117.322 28.565Z"/>
<path id="path3_fill" fill-rule="evenodd" d="M 2.30067 0.0352777C 2.3807 -0.0117603 2.481 -0.0117603 2.56209 0.0352777L 4.73073 1.28165C 4.81182 1.32843 4.86143 1.41453 4.86143 1.50754L 4.86143 4.00295C 4.86143 4.09596 4.81182 4.18207 4.73073 4.22884L 2.56209 5.47521C 2.481 5.52225 2.3807 5.52225 2.30067 5.47521L 0.133371 4.22884C 0.0506801 4.18207 -1.49784e-06 4.09596 -1.49784e-06 4.00295L -1.49784e-06 1.50754C -1.49784e-06 1.41453 0.0480181 1.32843 0.130709 1.28165L 2.30067 0.0352777Z"/>
<path id="path4_fill" d="M 47.9034 15.4641L 16.2368 -8.4345e-07L -3.25617e-08 32.9994L 31.6658 48.4643L 47.9034 15.4641Z"/>
<path id="path5_fill" d="M 1.9537e-06 21.7658L 22.3599 51.9162L 51.9313 30.1495L 29.57 -5.51486e-07L 1.9537e-06 21.7658Z"/>
<path id="path6_fill" d="M 1.13966e-06 1.5247e-06L 1.13966e-06 28.5497L 24.456 28.5497L 24.456 1.5247e-06L 1.13966e-06 1.5247e-06Z"/>
</defs>
</svg>
