<svg width="70" height="70" viewBox="0 0 70 70" version="1.1" xmlns="http://www.w3.org/2000/svg" xmlns:xlink="http://www.w3.org/1999/xlink">
<title>Technology-Logo-Python</title>
<desc>Created using Figma</desc>
<g id="Canvas" transform="translate(-8505 -2723)">
<g id="Technology-Logo-Python">
<g id="layer1">
<g id="g3004">
<g id="path2997">
<use xlink:href="#path0_fill" transform="translate(8505 2723)" fill="#FED142"/>
</g>
<g id="path2995">
<use xlink:href="#path1_fill" transform="translate(8505 2723)" fill="#3571A3"/>
</g>
</g>
</g>
</g>
</g>
<defs>
<path id="path0_fill" d="M 33.4913 69.9693C 24.9781 69.6595 19.7088 67.131 18.3681 62.7124L 18.2123 62.1988L 18.1905 53.5364C 18.1655 43.6222 18.1742 43.4213 18.7011 41.8427C 19.6626 38.9621 21.9363 37.1047 25.4921 36.2952L 26.2783 36.1162L 36.0552 36.0728C 43.0599 36.0417 45.9643 36.0066 46.2984 35.9489C 48.2561 35.6108 49.5404 35.1046 50.7461 34.1957C 52.1864 33.11 53.3754 31.2515 53.9067 29.2552C 54.3057 27.7559 54.295 27.9197 54.3381 22.653L 54.3782 17.7569L 57.8993 17.7569L 61.4203 17.7569L 62.104 17.9481C 65.7672 18.9727 68.4268 22.4489 69.5591 27.6922C 69.9946 29.709 69.9991 29.7836 69.9999 34.9284C 70.0007 39.9352 69.9984 39.9789 69.6492 41.6213C 69.3059 43.2356 68.8566 44.5491 68.1851 45.9011C 66.8309 48.6279 64.8341 50.4735 62.3091 51.332C 60.8667 51.8225 62.0741 51.7815 47.8831 51.8221L 35.098 51.8587L 35.098 53.0228L 35.098 54.1869L 43.5758 54.2212L 52.0537 54.2554L 52.0878 58.4325C 52.1066 60.73 52.0984 62.8068 52.0696 63.0478C 51.9999 63.6306 51.753 64.3223 51.3998 64.9246C 51.036 65.5449 49.9318 66.6542 49.1821 67.1525C 46.9052 68.6659 43.4338 69.5885 38.8583 69.896C 37.3189 69.9995 35.1388 70.0293 33.4913 69.9693ZM 45.2509 64.5566C 46.885 64.2912 48.0547 62.6895 47.7853 61.0861C 47.5631 59.7635 46.5436 58.7405 45.2306 58.5226C 43.2263 58.19 41.4035 60.0334 41.7602 62.0324C 42.0196 63.4865 43.1837 64.5102 44.7039 64.6212C 44.7603 64.6253 45.0065 64.5962 45.2509 64.5566ZM 8.82211 52.2009C 6.89908 51.8507 5.00534 50.6834 3.66713 49.0233C 1.13241 45.8788 -0.147162 40.6365 0.0134701 34.0545C 0.113573 29.9529 0.7258 26.9081 1.97126 24.3179C 3.57664 20.9792 5.97531 18.9993 9.21343 18.3399C 9.92269 18.1955 9.95824 18.1952 22.4503 18.2001C 29.3394 18.2029 35.0265 18.1857 35.0883 18.162C 35.1863 18.1243 35.2006 17.9717 35.2006 16.962C 35.2006 16.3258 35.1929 15.7979 35.1835 15.7888C 35.1741 15.7798 31.3514 15.7567 26.6886 15.7375L 18.2107 15.7025L 18.1931 11.2894C 18.1739 6.45581 18.17 6.51187 18.5832 5.62418C 20.0155 2.54685 24.2347 0.67714 30.9958 0.123697C 31.4847 0.0836836 32.8076 0.0328335 33.9357 0.0106899C 41.421 -0.136239 46.9119 1.23465 49.7981 3.97104C 50.1179 4.27418 50.5346 4.72668 50.7241 4.97657C 51.1551 5.54478 51.6916 6.6296 51.8971 7.34828L 52.0537 7.8961L 52.0537 17.0036C 52.0537 25.5049 52.0454 26.1544 51.93 26.7617C 51.781 27.5452 51.4232 28.6462 51.125 29.2386C 50.0926 31.2895 48.1903 32.767 45.6686 33.4767C 44.0312 33.9375 44.7749 33.9073 33.9357 33.9544C 23.1715 34.0011 23.8219 33.976 22.3129 34.4032C 19.3818 35.2329 17.2286 37.5194 16.3538 40.7311C 15.9606 42.1749 15.9693 42.04 15.9262 47.3392L 15.8862 52.2696L 12.6044 52.2808C 10.127 52.2893 9.19999 52.2698 8.82211 52.2009ZM 26.7424 11.235C 27.9866 10.6495 28.7359 9.27719 28.5106 7.99639C 28.3029 6.81493 27.4929 5.87204 26.3937 5.53199C 24.6369 4.98853 22.8039 6.10999 22.4798 7.92655C 22.2162 9.40395 23.0693 10.8422 24.5121 11.3529C 24.8345 11.4671 25.0419 11.4902 25.5946 11.4737C 26.1968 11.4558 26.3336 11.4273 26.7424 11.235Z"/>
<path id="path1_fill" d="M 8.82211 52.2009C 6.89908 51.8507 5.00534 50.6834 3.66713 49.0233C 1.13241 45.8788 -0.147162 40.6365 0.0134701 34.0545C 0.113573 29.9529 0.7258 26.9081 1.97126 24.3179C 3.57664 20.9792 5.97531 18.9993 9.21343 18.3399C 9.9227 18.1955 9.95824 18.1952 22.4503 18.2001C 29.3394 18.2029 35.0265 18.1857 35.0883 18.162C 35.1863 18.1243 35.2006 17.9717 35.2006 16.962C 35.2006 16.3258 35.1929 15.7979 35.1835 15.7888C 35.1741 15.7798 31.3514 15.7567 26.6886 15.7375L 18.2107 15.7025L 18.1931 11.2894C 18.1739 6.45581 18.17 6.51187 18.5832 5.62418C 20.0155 2.54685 24.2347 0.67714 30.9958 0.123697C 31.4847 0.0836836 32.8076 0.0328335 33.9357 0.0106899C 41.421 -0.136239 46.9119 1.23465 49.7981 3.97104C 50.1179 4.27418 50.5346 4.72668 50.7241 4.97657C 51.1551 5.54478 51.6917 6.6296 51.8971 7.34828L 52.0537 7.8961L 52.0537 17.0036C 52.0537 25.5049 52.0454 26.1544 51.93 26.7617C 51.781 27.5452 51.4232 28.6462 51.125 29.2386C 50.0926 31.2895 48.1903 32.767 45.6686 33.4767C 44.0312 33.9375 44.7749 33.9073 33.9357 33.9544C 23.1716 34.0011 23.822 33.976 22.3129 34.4032C 19.3818 35.2329 17.2286 37.5194 16.3538 40.7311C 15.9606 42.1749 15.9693 42.04 15.9262 47.3392L 15.8862 52.2696L 12.6044 52.2808C 10.127 52.2893 9.19999 52.2698 8.82211 52.2009ZM 26.7424 11.235C 27.9866 10.6495 28.7359 9.27719 28.5106 7.99639C 28.3029 6.81493 27.4929 5.87204 26.3937 5.53199C 24.6369 4.98853 22.8039 6.10999 22.4798 7.92655C 22.2162 9.40395 23.0693 10.8422 24.5121 11.3529C 24.8346 11.4671 25.0419 11.4902 25.5946 11.4737C 26.1968 11.4558 26.3337 11.4273 26.7424 11.235Z"/>
</defs>
</svg>
