<svg width="56" height="73" viewBox="0 0 56 73" version="1.1" xmlns="http://www.w3.org/2000/svg" xmlns:xlink="http://www.w3.org/1999/xlink">
<title>rails 2</title>
<desc>Created using Figma</desc>
<g id="Canvas" transform="translate(-8805 -2721)">
<g id="rails 2">
<g id="Vector">
<use xlink:href="#path0_fill" transform="translate(8805.69 2721.7)" fill="#A62C39"/>
</g>
<g id="Vector">
<use xlink:href="#path1_fill" transform="translate(8840.46 2721.94)" fill="url(#paint1_linear)"/>
</g>
<g id="Vector" opacity="0.668">
<use xlink:href="#path2_fill" transform="translate(8816.57 2721.94)" fill="url(#paint2_radial)"/>
</g>
<g id="Vector">
<use xlink:href="#path3_fill" transform="translate(8816.32 2770.26)" fill="#FFFFFF" fill-opacity="0.44"/>
</g>
<g id="Vector">
<use xlink:href="#path4_fill" transform="translate(8805.79 2722.12)" fill="#000000" fill-opacity="0.362"/>
</g>
<g id="Vector" opacity="0.5">
<use xlink:href="#path5_fill" transform="translate(8818.01 2765.54)" fill="#83222D"/>
</g>
<g id="Group">
<g id="Vector">
<use xlink:href="#path6_fill" transform="translate(8811 2776.39)" fill="#FFFFFF"/>
</g>
</g>
<g id="Group">
<g id="Vector">
<use xlink:href="#path7_fill" transform="translate(8808.22 2724.76)" fill="#FFFFFF"/>
</g>
<g id="Vector">
<use xlink:href="#path8_fill" transform="translate(8834.35 2727.57)" fill="#FFFFFF"/>
</g>
</g>
<g id="Vector">
<use xlink:href="#path9_fill" transform="translate(8805 2721)" fill="#5E000E"/>
</g>
</g>
</g>
<defs>
<linearGradient id="paint1_linear" x1="0" y1="0" x2="1" y2="0" gradientUnits="userSpaceOnUse" gradientTransform="matrix(13.03 -6.90248 2.97898 30.1912 5.46535 14.6946)">
<stop offset="0" stop-color="#FFFFFF"/>
<stop offset="1" stop-color="#C0815E"/>
</linearGradient>
<radialGradient id="paint2_radial" cx="0.5" cy="0.5" r="0.5" gradientUnits="userSpaceOnUse" gradientTransform="matrix(44.2786 0 0 71.3974 -0.228312 -0.368145)">
<stop offset="0" stop-color="#FFFFFF"/>
<stop offset="1" stop-color="#A94436"/>
</radialGradient>
<path id="path0_fill" d="M 0.10253 71.453C 0.10253 71.453 0.211488 54.1612 0.211488 36.583C 0.211488 2.53598 -2.62515 1.6917e-09 12.479 1.6917e-09L 54.521 1.6917e-09L 54.521 49.1104C 54.521 65.277 57.5089 71.6102 40.7108 71.6102C 23.9128 71.6102 0.10275 71.4532 0.10275 71.4532L 0.10253 71.453Z"/>
<path id="path1_fill" d="M -7.73579e-09 6.17596C -7.73579e-09 6.17596 2.69392 6.72099 5.02873 10.7171C 7.36355 14.7134 19.7558 45.7755 19.7558 45.7755L 19.7558 20.5259L 8.2613 1.63485L 11.4943 5.63116L 17.6006 0.544579L 9.69836 -2.41067e-08L -7.73579e-09 6.17596Z"/>
<path id="path2_fill" d="M -4.18151e-10 0.1816C -4.18151e-10 0.1816 17.7801 12.1703 26.4009 14.5318C 35.0216 16.8933 43.822 19.4432 43.822 19.4432L 23.5273 70.2979L 32.3276 70.6611L 43.822 42.1452L 43.4626 6.60819e-11L -4.18151e-10 0.181822L -4.18151e-10 0.1816Z"/>
<path id="path3_fill" d="M 16.7759 5.44934L 34.8448 23.0151L 0.791558 22.706C 0.791558 22.706 -0.285965 11.6255 0.0733551 5.81276C 0.432456 -1.26877e-06 2.2284 -5.95478e-07 2.2284 -5.95478e-07L 16.7759 5.44934Z"/>
<path id="path4_fill" d="M 44.3608 71.206L 27.658 53.7677L 12.3923 47.9549L 0.538871 21.2526L 13.1107 2.11462e-08L 5.05701 2.11462e-08L 1.25729 2.90627L 4.26514e-08 5.44934L 4.26514e-08 71.206L 44.3608 71.206Z"/>
<path id="path5_fill" d="M 42.3851 2.97739e-07C 42.3851 2.97739e-07 25.503 5.44934 15.4453 10.5355C 5.38783 15.6218 3.07759e-07 27.9738 3.07759e-07 27.9738C 3.07759e-07 27.9738 21.5518 26.8839 29.6335 27.2471C 37.7155 27.6106 41.4871 27.6106 42.2056 16.1666C 42.924 4.72294 42.3851 2.97739e-07 42.3851 2.97739e-07Z"/>
<path id="path6_fill" d="M 4.01425e-08 9.74418e-07L 4.01425e-08 10.7286L 2.70532 10.7286L 2.70532 7.93409L 5.16772 10.4244L 9.31887 10.4244L 6.02645 7.09439C 6.02645 7.09439 8.39525 7.05581 8.57458 3.59076C 8.57458 0.411761 6.20315 9.74418e-07 3.4643 9.74418e-07L 4.01425e-08 9.74418e-07ZM 2.83422 2.91026L 5.16772 2.91026L 5.16772 4.82139L 2.834 4.82139L 2.834 2.91004L 2.83422 2.91026ZM 14.5438 0.0434607C 13.0627 0.0350348 11.008 0.17406 11.008 2.99696L 11.008 10.4534L 13.7853 10.4534L 13.7853 8.62923L 16.4763 8.62923L 16.4763 10.41L 19.2678 10.41L 19.2678 2.59163C 19.2678 0.139247 16.5741 0.0434607 15.1309 0.0434607C 14.9505 0.0434607 14.7556 0.0450128 14.5438 0.0434607ZM 13.8282 2.73642L 16.4334 2.73642L 16.4334 5.67551L 13.8285 5.67551L 13.8285 2.73642L 13.8282 2.73642ZM 22.0501 0.0505557L 24.9235 0.0505557L 24.9235 10.3137L 22.0501 10.3137L 22.0501 0.0505557ZM 27.9321 0.186923L 27.9321 10.4499L 34.8466 10.4499L 34.8466 7.72522L 30.7606 7.72522L 30.7606 0.141244L 27.9321 0.1867L 27.9321 0.186923ZM 44.0059 0.0960116L 44.0059 2.86614L 39.3814 2.86614L 39.3814 3.86505L 41.3569 3.86505C 42.3895 3.86505 44.5448 3.81981 44.5448 7.08951C 44.5448 10.359 43.0632 10.5408 40.0549 10.5408L 36.4179 10.5408L 36.4179 8.04297L 40.5936 8.04297C 41.8509 8.04297 41.9201 7.62921 41.9201 7.26845C 41.9201 6.90769 41.2773 6.74006 39.9701 6.74006C 38.663 6.74006 36.2383 6.09038 36.2383 3.54709C 36.2383 1.00424 37.4956 0.0503324 40.01 0.0503324C 42.5243 0.0503324 44.0059 0.0960116 44.0059 0.0960116Z"/>
<path id="path7_fill" d="M 5.29795 48.5911L 29.1845 48.5911C 29.1845 48.5911 23.8864 36.4207 25.2333 25.2491C 26.5805 14.0779 35.291 8.99177 40.2299 8.44674C 45.1689 7.90194 47.8628 10.99 47.8628 10.99L 48.9404 9.35497C 48.9404 9.35497 41.8462 2.08918 32.8663 2.90649C 23.8866 3.72403 17.6902 9.71817 13.8289 16.9844C 9.96758 24.2502 7.72265 29.3363 6.19592 36.9655C 4.66941 44.5947 5.29795 48.5911 5.29795 48.5911ZM 0.538652 36.4205L 5.20828 36.7842L 4.39998 41.5069L 3.01069e-08 40.9618L 0.538652 36.4207L 0.538652 36.4205ZM 7.9022 26.4301L 9.15949 22.8878L 5.02873 21.253L 3.68155 25.0677L 7.9022 26.4301ZM 13.7392 14.2595L 16.1637 11.3535L 13.0208 9.2645L 10.5062 12.0801L 13.7392 14.2597L 13.7392 14.2595ZM 20.1149 2.9974L 22.27 5.63116L 25.2333 3.90563L 23.0783 1.45325L 20.1149 2.9974ZM 30.6214 0.000221707L 31.1602 2.63398L 34.842 2.54307L 34.4827 0.181822L 30.6214 9.47351e-08L 30.6214 0.000221707Z"/>
<path id="path8_fill" d="M 16.972 -3.72174e-08L 16.8821 1.63485L 19.3965 2.99718L 19.9354 2.17965L 16.972 -3.72174e-08ZM 16.4332 6.99328L 16.4332 8.35583L 18.8579 8.62812L 18.8579 7.5383L 16.4332 6.99328ZM 8.7105 8.17401L 9.87769 10.3539L 11.584 8.99154L 11.2249 7.5383L 8.71028 8.17401L 8.7105 8.17401ZM 5.02873 10.9896L 6.82467 13.7143L 5.74693 15.6216L 3.1429 12.7153L 5.02873 10.9896ZM 1.43662 18.5281L 0.269217 20.8896L 3.32245 23.5233L 4.04087 20.5262L 1.43662 18.5281ZM 0.179331 26.793L 1.09723e-06 29.9718L 3.77144 31.6067L 3.59167 28.6095L 0.179552 26.793L 0.179331 26.793ZM 1.25707 38.0551L 2.15505 41.3248L 6.91456 41.5976L 5.20828 38.0551L 1.25707 38.0551Z"/>
<path id="path9_fill" d="M 1.48209 72.1525L 1.48341 71.9539L 1.48691 71.3749L 1.49919 69.1753C 1.51191 66.8054 1.52462 64.1608 1.53646 61.308C 1.57066 53.157 1.59105 44.9699 1.59105 37.2784C 1.59105 33.3151 1.55729 29.8541 1.48516 25.0114C 1.26461 10.2151 1.37072 7.39683 2.59184 4.73757C 3.81866 2.06612 6.12147 1.38983 13.1715 1.38983L 55.2135 1.38983L 54.5265 0.694915L 54.5265 49.8053C 54.5265 51.3124 54.5425 52.6129 54.5813 54.8034C 54.7317 63.2464 54.5468 65.6471 53.1994 67.872C 51.6236 70.4744 48.231 71.6102 41.4033 71.6102C 37.5485 71.6102 33.0135 71.6013 27.9374 71.5844C 23.8544 71.5711 19.5264 71.5532 15.0729 71.5317C 10.4082 71.5091 5.74357 71.4836 1.07892 71.455L 0.799622 71.4532L 1.48231 72.1525L 1.48209 72.1525ZM 0.103562 72.8386L 0.790634 72.843C 1.15251 72.8453 1.51439 72.8475 1.87627 72.8497C 6.27279 72.8763 10.6693 72.9002 15.0659 72.9215C 19.5202 72.943 23.849 72.961 27.9328 72.9745C 33.0102 72.9911 37.5465 73 41.403 73C 48.6614 73 52.4795 71.7219 54.3712 68.5979C 55.9212 66.0384 56.1115 63.5639 55.9552 54.7785C 55.9164 52.5958 55.9004 51.302 55.9004 49.8053L 55.9004 5.02223e-10L 13.1715 5.02223e-10C 5.61241 5.02223e-10 2.88429 0.800904 1.34551 4.15197C 0.576225 5.82717 0.204628 8.14629 0.0698006 11.7293C -0.0341151 14.4903 -0.0233728 16.0121 0.111235 25.0325C 0.183143 29.8687 0.216905 33.3233 0.216905 37.2784C 0.216905 44.9677 0.196297 53.1528 0.162316 61.302C 0.14831 64.6568 0.131721 68.0117 0.112551 71.3665L 0.109262 71.9452L 0.103562 72.8388L 0.103562 72.8386Z"/>
</defs>
</svg>
