<svg width="1194" height="544" viewBox="0 0 1194 544" version="1.1" xmlns="http://www.w3.org/2000/svg" xmlns:xlink="http://www.w3.org/1999/xlink">
<title>Group 2</title>
<desc>Created using Figma</desc>
<g id="Canvas" transform="translate(-10419 619)">
<g id="Group 2">
<g id="Vector 2.6">
<use xlink:href="#path0_fill" transform="translate(10419 -555)" fill="#2F567A"/>
</g>
<g id="Vector 3.6">
<use xlink:href="#path1_fill" transform="translate(10942 -562)" fill="#2F567A"/>
</g>
<g id="Vector 4.6">
<use xlink:href="#path2_fill" transform="translate(11042 -619)" fill="#2F567A"/>
</g>
<g id="Vector 5.6">
<use xlink:href="#path3_fill" transform="translate(10419 -619)" fill="#2F567A"/>
</g>
<g id="Vector 6.7">
<use xlink:href="#path4_fill" transform="translate(10523 -386.5)" fill="#376691"/>
</g>
<g id="Vector 7.7">
<use xlink:href="#path5_fill" transform="translate(11391.5 -443)" fill="#376691"/>
</g>
</g>
</g>
<defs>
<path id="path0_fill" d="M 0 156.337L 421.686 480L 473 480L 0 0L 0 156.337Z"/>
<path id="path1_fill" d="M 671 160.5L 49.4539 487L 0 487L 671 0L 671 160.5Z"/>
<path id="path2_fill" d="M 221.5 0L 571 330.993L 571 355L 0 0L 221.5 0Z"/>
<path id="path3_fill" d="M 382.737 0L 0 411.41L 0 451L 578 0L 382.737 0Z"/>
<path id="path4_fill" d="M 0 67.5L 62.5 0L 111.5 50.5L 45 102.5L 0 67.5Z"/>
<path id="path5_fill" d="M 0 41.5L 58 0L 144.5 82L 101.5 104.5L 0 41.5Z"/>
</defs>
</svg>
