<svg width="65" height="67" viewBox="0 0 65 67" version="1.1" xmlns="http://www.w3.org/2000/svg" xmlns:xlink="http://www.w3.org/1999/xlink">
<title>Twitter</title>
<desc>Created using Figma</desc>
<g id="Canvas" transform="translate(-8278 -2610)">
<g id="Twitter">
<g id="Vector">
<use xlink:href="#path0_fill" transform="translate(8278 2610)" fill="#F1E4C1"/>
</g>
</g>
</g>
<defs>
<path id="path0_fill" d="M 7.43954 0C 3.33079 0 0 3.40218 0 7.59898L 0 58.5121C 0 62.7089 3.33079 66.1111 7.43954 66.1111L 57.2844 66.1111C 61.3932 66.1111 64.724 62.7089 64.724 58.5121L 64.724 7.59898C 64.724 3.40218 61.3932 0 57.2844 0L 7.43954 0ZM 44.1304 7.63222C 47.7478 7.63222 51.0195 9.19146 53.3136 11.6882C 56.1784 11.1122 58.8669 10.0448 61.2971 8.5726C 60.3583 11.5725 58.3649 14.0925 55.7686 15.6824C 58.3127 15.3722 60.7389 14.6811 62.9943 13.6592C 61.3082 16.2354 59.1748 18.4971 56.7172 20.3083C 57.5123 38.3762 44.3202 58.5216 20.9702 58.5216C 13.8678 58.5216 7.25816 56.3912 1.69249 52.7464C 8.36517 53.5496 15.0224 51.6596 20.3099 47.4271C 14.8065 47.3236 10.1602 43.6113 8.56012 38.5078C 10.5307 38.8925 12.4721 38.7813 14.2421 38.2893C 8.19387 37.048 4.01575 31.4796 4.15219 25.5278C 5.84751 26.4903 7.78674 27.0713 9.84809 27.1378C 4.24716 23.3142 2.66176 15.7605 5.95628 9.98791C 12.1592 17.7597 21.4305 22.874 31.8831 23.4096C 30.0483 15.3743 36.0124 7.63222 44.1304 7.63222Z"/>
</defs>
</svg>
